<?xml version="1.0" encoding="UTF-8" standalone="no"?>
<!DOCTYPE svg PUBLIC "-//W3C//DTD SVG 1.1//EN"
 "http://www.w3.org/Graphics/SVG/1.1/DTD/svg11.dtd">
<!-- Generated by graphviz version 2.47.0 (20210316.0004)
 -->
<!-- Title: dependencies Pages: 1 -->
<svg width="504pt" height="284pt"
 viewBox="0.00 0.00 504.00 284.00" xmlns="http://www.w3.org/2000/svg" xmlns:xlink="http://www.w3.org/1999/xlink">
<g id="graph0" class="graph" transform="scale(1 1) rotate(0) translate(4 280)">
<title>dependencies</title>
<polygon fill="white" stroke="transparent" points="-4,4 -4,-280 500,-280 500,4 -4,4"/>
<text text-anchor="start" x="227.01" y="-42.4" font-family="Times-12" font-weight="bold" font-size="14.00">Legend</text>
<polygon fill="#ffffb3" stroke="transparent" points="14,-10 14,-30 34,-30 34,-10 14,-10"/>
<text text-anchor="start" x="37.63" y="-15.4" font-family="Times-12" font-size="14.00"> &#160;Declarations</text>
<polygon fill="#8dd3c7" stroke="transparent" points="127,-10 127,-30 147,-30 147,-10 127,-10"/>
<text text-anchor="start" x="150.73" y="-15.4" font-family="Times-12" font-size="14.00"> &#160;Module</text>
<polygon fill="#80b1d3" stroke="transparent" points="213,-10 213,-30 233,-30 233,-10 213,-10"/>
<text text-anchor="start" x="236.78" y="-15.4" font-family="Times-12" font-size="14.00"> &#160;Bootstrap</text>
<polygon fill="#fdb462" stroke="transparent" points="310,-10 310,-30 330,-30 330,-10 310,-10"/>
<text text-anchor="start" x="333.67" y="-15.4" font-family="Times-12" font-size="14.00"> &#160;Providers</text>
<polygon fill="#fb8072" stroke="transparent" points="406,-10 406,-30 426,-30 426,-10 406,-10"/>
<text text-anchor="start" x="429.73" y="-15.4" font-family="Times-12" font-size="14.00"> &#160;Exports</text>
<g id="clust1" class="cluster">
<title>cluster_RabbitMQModule</title>
<polygon fill="none" stroke="black" stroke-dasharray="1,5" points="35.5,-70 35.5,-268 460.5,-268 460.5,-70 35.5,-70"/>
</g>
<g id="clust6" class="cluster">
<title>cluster_RabbitMQModule_providers</title>
<polygon fill="none" stroke="black" points="73.5,-78 73.5,-130 422.5,-130 422.5,-78 73.5,-78"/>
</g>
<g id="clust4" class="cluster">
<title>cluster_RabbitMQModule_exports</title>
<polygon fill="none" stroke="black" points="43.5,-208 43.5,-260 452.5,-260 452.5,-208 43.5,-208"/>
</g>
<!-- PublisherService  -->
<g id="node1" class="node">
<title>PublisherService </title>
<polygon fill="#fb8072" stroke="black" points="444.86,-252 330.14,-252 330.14,-216 444.86,-216 444.86,-252"/>
<text text-anchor="middle" x="387.5" y="-229.8" font-family="Times,serif" font-size="14.00">PublisherService </text>
</g>
<!-- RabbitMQService  -->
<g id="node2" class="node">
<title>RabbitMQService </title>
<polygon fill="#fb8072" stroke="black" points="312.36,-252 190.64,-252 190.64,-216 312.36,-216 312.36,-252"/>
<text text-anchor="middle" x="251.5" y="-229.8" font-family="Times,serif" font-size="14.00">RabbitMQService </text>
</g>
<!-- SubscriberService  -->
<g id="node3" class="node">
<title>SubscriberService </title>
<polygon fill="#fb8072" stroke="black" points="173.35,-252 51.65,-252 51.65,-216 173.35,-216 173.35,-252"/>
<text text-anchor="middle" x="112.5" y="-229.8" font-family="Times,serif" font-size="14.00">SubscriberService </text>
</g>
<!-- RabbitMQModule -->
<g id="node4" class="node">
<title>RabbitMQModule</title>
<polygon fill="#8dd3c7" stroke="black" points="311.43,-187 308.43,-191 287.43,-191 284.43,-187 191.57,-187 191.57,-151 311.43,-151 311.43,-187"/>
<text text-anchor="middle" x="251.5" y="-164.8" font-family="Times,serif" font-size="14.00">RabbitMQModule</text>
</g>
<!-- RabbitMQModule&#45;&gt;PublisherService  -->
<g id="edge1" class="edge">
<title>RabbitMQModule&#45;&gt;PublisherService </title>
<path fill="none" stroke="black" stroke-dasharray="5,2" d="M311.36,-169C341.88,-169 372.64,-169 372.64,-169 372.64,-169 372.64,-205.89 372.64,-205.89"/>
<polygon fill="black" stroke="black" points="369.14,-205.89 372.64,-215.89 376.14,-205.89 369.14,-205.89"/>
</g>
<!-- RabbitMQModule&#45;&gt;RabbitMQService  -->
<g id="edge2" class="edge">
<title>RabbitMQModule&#45;&gt;RabbitMQService </title>
<path fill="none" stroke="black" stroke-dasharray="5,2" d="M251.5,-187.11C251.5,-187.11 251.5,-205.99 251.5,-205.99"/>
<polygon fill="black" stroke="black" points="248,-205.99 251.5,-215.99 255,-205.99 248,-205.99"/>
</g>
<!-- RabbitMQModule&#45;&gt;SubscriberService  -->
<g id="edge3" class="edge">
<title>RabbitMQModule&#45;&gt;SubscriberService </title>
<path fill="none" stroke="black" stroke-dasharray="5,2" d="M191.53,-169C159.74,-169 127.19,-169 127.19,-169 127.19,-169 127.19,-205.89 127.19,-205.89"/>
<polygon fill="black" stroke="black" points="123.69,-205.89 127.19,-215.89 130.69,-205.89 123.69,-205.89"/>
</g>
<!-- PublisherService -->
<g id="node5" class="node">
<title>PublisherService</title>
<ellipse fill="#fdb462" stroke="black" cx="338.5" cy="-104" rx="76.44" ry="18"/>
<text text-anchor="middle" x="338.5" y="-99.8" font-family="Times,serif" font-size="14.00">PublisherService</text>
</g>
<!-- PublisherService&#45;&gt;RabbitMQModule -->
<g id="edge4" class="edge">
<title>PublisherService&#45;&gt;RabbitMQModule</title>
<path fill="none" stroke="black" d="M286.62,-117.47C286.62,-117.47 286.62,-140.86 286.62,-140.86"/>
<polygon fill="black" stroke="black" points="283.12,-140.86 286.62,-150.86 290.12,-140.86 283.12,-140.86"/>
</g>
<!-- SubscriberService -->
<g id="node6" class="node">
<title>SubscriberService</title>
<ellipse fill="#fdb462" stroke="black" cx="162.5" cy="-104" rx="81.08" ry="18"/>
<text text-anchor="middle" x="162.5" y="-99.8" font-family="Times,serif" font-size="14.00">SubscriberService</text>
</g>
<!-- SubscriberService&#45;&gt;RabbitMQModule -->
<g id="edge5" class="edge">
<title>SubscriberService&#45;&gt;RabbitMQModule</title>
<path fill="none" stroke="black" d="M217.79,-117.47C217.79,-117.47 217.79,-140.86 217.79,-140.86"/>
<polygon fill="black" stroke="black" points="214.29,-140.86 217.79,-150.86 221.29,-140.86 214.29,-140.86"/>
</g>
</g>
</svg>
