<?xml version="1.0" encoding="UTF-8" standalone="no"?>
<!DOCTYPE svg PUBLIC "-//W3C//DTD SVG 1.1//EN"
 "http://www.w3.org/Graphics/SVG/1.1/DTD/svg11.dtd">
<!-- Generated by graphviz version 2.47.0 (20210316.0004)
 -->
<!-- Title: dependencies Pages: 1 -->
<svg width="504pt" height="284pt"
 viewBox="0.00 0.00 504.00 284.00" xmlns="http://www.w3.org/2000/svg" xmlns:xlink="http://www.w3.org/1999/xlink">
<g id="graph0" class="graph" transform="scale(1 1) rotate(0) translate(4 280)">
<title>dependencies</title>
<polygon fill="white" stroke="transparent" points="-4,4 -4,-280 500,-280 500,4 -4,4"/>
<text text-anchor="start" x="227.01" y="-42.4" font-family="Times-12" font-weight="bold" font-size="14.00">Legend</text>
<polygon fill="#ffffb3" stroke="transparent" points="14,-10 14,-30 34,-30 34,-10 14,-10"/>
<text text-anchor="start" x="37.63" y="-15.4" font-family="Times-12" font-size="14.00"> &#160;Declarations</text>
<polygon fill="#8dd3c7" stroke="transparent" points="127,-10 127,-30 147,-30 147,-10 127,-10"/>
<text text-anchor="start" x="150.73" y="-15.4" font-family="Times-12" font-size="14.00"> &#160;Module</text>
<polygon fill="#80b1d3" stroke="transparent" points="213,-10 213,-30 233,-30 233,-10 213,-10"/>
<text text-anchor="start" x="236.78" y="-15.4" font-family="Times-12" font-size="14.00"> &#160;Bootstrap</text>
<polygon fill="#fdb462" stroke="transparent" points="310,-10 310,-30 330,-30 330,-10 310,-10"/>
<text text-anchor="start" x="333.67" y="-15.4" font-family="Times-12" font-size="14.00"> &#160;Providers</text>
<polygon fill="#fb8072" stroke="transparent" points="406,-10 406,-30 426,-30 426,-10 406,-10"/>
<text text-anchor="start" x="429.73" y="-15.4" font-family="Times-12" font-size="14.00"> &#160;Exports</text>
<g id="clust1" class="cluster">
<title>cluster_RedisModule</title>
<polygon fill="none" stroke="black" stroke-dasharray="1,5" points="69,-70 69,-268 427,-268 427,-70 69,-70"/>
</g>
<g id="clust4" class="cluster">
<title>cluster_RedisModule_exports</title>
<polygon fill="none" stroke="black" points="100,-208 100,-260 364,-260 364,-208 100,-208"/>
</g>
<g id="clust6" class="cluster">
<title>cluster_RedisModule_providers</title>
<polygon fill="none" stroke="black" points="77,-78 77,-130 419,-130 419,-78 77,-78"/>
</g>
<!-- RedisPubSubService  -->
<g id="node1" class="node">
<title>RedisPubSubService </title>
<polygon fill="#fb8072" stroke="black" points="356.43,-252 219.57,-252 219.57,-216 356.43,-216 356.43,-252"/>
<text text-anchor="middle" x="288" y="-229.8" font-family="Times,serif" font-size="14.00">RedisPubSubService </text>
</g>
<!-- RedisService  -->
<g id="node2" class="node">
<title>RedisService </title>
<polygon fill="#fb8072" stroke="black" points="201.86,-252 108.14,-252 108.14,-216 201.86,-216 201.86,-252"/>
<text text-anchor="middle" x="155" y="-229.8" font-family="Times,serif" font-size="14.00">RedisService </text>
</g>
<!-- RedisModule -->
<g id="node3" class="node">
<title>RedisModule</title>
<polygon fill="#8dd3c7" stroke="black" points="223.94,-187 220.94,-191 199.94,-191 196.94,-187 132.06,-187 132.06,-151 223.94,-151 223.94,-187"/>
<text text-anchor="middle" x="178" y="-164.8" font-family="Times,serif" font-size="14.00">RedisModule</text>
</g>
<!-- RedisModule&#45;&gt;RedisPubSubService  -->
<g id="edge1" class="edge">
<title>RedisModule&#45;&gt;RedisPubSubService </title>
<path fill="none" stroke="black" stroke-dasharray="5,2" d="M210.61,-187.11C210.61,-206.34 210.61,-234 210.61,-234 210.61,-234 211.5,-234 211.5,-234"/>
<polygon fill="black" stroke="black" points="209.49,-237.5 219.49,-234 209.49,-230.5 209.49,-237.5"/>
</g>
<!-- RedisModule&#45;&gt;RedisService  -->
<g id="edge2" class="edge">
<title>RedisModule&#45;&gt;RedisService </title>
<path fill="none" stroke="black" stroke-dasharray="5,2" d="M166.98,-187.11C166.98,-187.11 166.98,-205.99 166.98,-205.99"/>
<polygon fill="black" stroke="black" points="163.48,-205.99 166.98,-215.99 170.48,-205.99 163.48,-205.99"/>
</g>
<!-- RedisPubSubService -->
<g id="node4" class="node">
<title>RedisPubSubService</title>
<ellipse fill="#fdb462" stroke="black" cx="319" cy="-104" rx="92.07" ry="18"/>
<text text-anchor="middle" x="319" y="-99.8" font-family="Times,serif" font-size="14.00">RedisPubSubService</text>
</g>
<!-- RedisPubSubService&#45;&gt;RedisModule -->
<g id="edge3" class="edge">
<title>RedisPubSubService&#45;&gt;RedisModule</title>
<path fill="none" stroke="black" d="M226.95,-104C220.43,-104 216.35,-104 216.35,-104 216.35,-104 216.35,-140.89 216.35,-140.89"/>
<polygon fill="black" stroke="black" points="212.85,-140.89 216.35,-150.89 219.85,-140.89 212.85,-140.89"/>
</g>
<!-- RedisService -->
<g id="node5" class="node">
<title>RedisService</title>
<ellipse fill="#fdb462" stroke="black" cx="147" cy="-104" rx="61.97" ry="18"/>
<text text-anchor="middle" x="147" y="-99.8" font-family="Times,serif" font-size="14.00">RedisService</text>
</g>
<!-- RedisService&#45;&gt;RedisModule -->
<g id="edge4" class="edge">
<title>RedisService&#45;&gt;RedisModule</title>
<path fill="none" stroke="black" d="M170.63,-120.74C170.63,-120.74 170.63,-140.72 170.63,-140.72"/>
<polygon fill="black" stroke="black" points="167.13,-140.72 170.63,-150.72 174.13,-140.72 167.13,-140.72"/>
</g>
</g>
</svg>
