<?xml version="1.0" encoding="UTF-8" standalone="no"?>
<!DOCTYPE svg PUBLIC "-//W3C//DTD SVG 1.1//EN"
 "http://www.w3.org/Graphics/SVG/1.1/DTD/svg11.dtd">
<!-- Generated by graphviz version 2.47.0 (20210316.0004)
 -->
<!-- Title: dependencies Pages: 1 -->
<svg width="504pt" height="211pt"
 viewBox="0.00 0.00 504.00 211.00" xmlns="http://www.w3.org/2000/svg" xmlns:xlink="http://www.w3.org/1999/xlink">
<g id="graph0" class="graph" transform="scale(1 1) rotate(0) translate(4 207)">
<title>dependencies</title>
<polygon fill="white" stroke="transparent" points="-4,4 -4,-207 500,-207 500,4 -4,4"/>
<text text-anchor="start" x="227.01" y="-42.4" font-family="Times-12" font-weight="bold" font-size="14.00">Legend</text>
<polygon fill="#ffffb3" stroke="transparent" points="14,-10 14,-30 34,-30 34,-10 14,-10"/>
<text text-anchor="start" x="37.63" y="-15.4" font-family="Times-12" font-size="14.00"> &#160;Declarations</text>
<polygon fill="#8dd3c7" stroke="transparent" points="127,-10 127,-30 147,-30 147,-10 127,-10"/>
<text text-anchor="start" x="150.73" y="-15.4" font-family="Times-12" font-size="14.00"> &#160;Module</text>
<polygon fill="#80b1d3" stroke="transparent" points="213,-10 213,-30 233,-30 233,-10 213,-10"/>
<text text-anchor="start" x="236.78" y="-15.4" font-family="Times-12" font-size="14.00"> &#160;Bootstrap</text>
<polygon fill="#fdb462" stroke="transparent" points="310,-10 310,-30 330,-30 330,-10 310,-10"/>
<text text-anchor="start" x="333.67" y="-15.4" font-family="Times-12" font-size="14.00"> &#160;Providers</text>
<polygon fill="#fb8072" stroke="transparent" points="406,-10 406,-30 426,-30 426,-10 406,-10"/>
<text text-anchor="start" x="429.73" y="-15.4" font-family="Times-12" font-size="14.00"> &#160;Exports</text>
<g id="clust1" class="cluster">
<title>cluster_CatsModule</title>
<polygon fill="none" stroke="black" stroke-dasharray="1,5" points="124,-70 124,-195 372,-195 372,-70 124,-70"/>
</g>
<g id="clust3" class="cluster">
<title>cluster_CatsModule_imports</title>
<polygon fill="none" stroke="black" points="270,-78 270,-130 364,-130 364,-78 270,-78"/>
</g>
<g id="clust6" class="cluster">
<title>cluster_CatsModule_providers</title>
<polygon fill="none" stroke="black" points="132,-78 132,-130 262,-130 262,-78 132,-78"/>
</g>
<!-- AlsModule -->
<g id="node1" class="node">
<title>AlsModule</title>
<polygon fill="#8dd3c7" stroke="black" points="356.49,-122 353.49,-126 332.49,-126 329.49,-122 277.51,-122 277.51,-86 356.49,-86 356.49,-122"/>
<text text-anchor="middle" x="317" y="-99.8" font-family="Times,serif" font-size="14.00">AlsModule</text>
</g>
<!-- CatsModule -->
<g id="node2" class="node">
<title>CatsModule</title>
<polygon fill="#8dd3c7" stroke="black" points="299.44,-187 296.44,-191 275.44,-191 272.44,-187 214.56,-187 214.56,-151 299.44,-151 299.44,-187"/>
<text text-anchor="middle" x="257" y="-164.8" font-family="Times,serif" font-size="14.00">CatsModule</text>
</g>
<!-- AlsModule&#45;&gt;CatsModule -->
<g id="edge1" class="edge">
<title>AlsModule&#45;&gt;CatsModule</title>
<path fill="none" stroke="black" d="M288.36,-122.11C288.36,-122.11 288.36,-140.99 288.36,-140.99"/>
<polygon fill="black" stroke="black" points="284.86,-140.99 288.36,-150.99 291.86,-140.99 284.86,-140.99"/>
</g>
<!-- CatsService -->
<g id="node3" class="node">
<title>CatsService</title>
<ellipse fill="#fdb462" stroke="black" cx="197" cy="-104" rx="57.32" ry="18"/>
<text text-anchor="middle" x="197" y="-99.8" font-family="Times,serif" font-size="14.00">CatsService</text>
</g>
<!-- CatsService&#45;&gt;CatsModule -->
<g id="edge2" class="edge">
<title>CatsService&#45;&gt;CatsModule</title>
<path fill="none" stroke="black" d="M234.47,-117.78C234.47,-117.78 234.47,-140.55 234.47,-140.55"/>
<polygon fill="black" stroke="black" points="230.97,-140.55 234.47,-150.55 237.97,-140.55 230.97,-140.55"/>
</g>
</g>
</svg>
