<?xml version="1.0" encoding="UTF-8" standalone="no"?>
<!DOCTYPE svg PUBLIC "-//W3C//DTD SVG 1.1//EN"
 "http://www.w3.org/Graphics/SVG/1.1/DTD/svg11.dtd">
<!-- Generated by graphviz version 2.47.0 (20210316.0004)
 -->
<!-- Title: dependencies Pages: 1 -->
<svg width="1678pt" height="211pt"
 viewBox="0.00 0.00 1678.00 211.00" xmlns="http://www.w3.org/2000/svg" xmlns:xlink="http://www.w3.org/1999/xlink">
<g id="graph0" class="graph" transform="scale(1 1) rotate(0) translate(4 207)">
<title>dependencies</title>
<polygon fill="white" stroke="transparent" points="-4,4 -4,-207 1674,-207 1674,4 -4,4"/>
<text text-anchor="start" x="814.01" y="-42.4" font-family="Times-12" font-weight="bold" font-size="14.00">Legend</text>
<polygon fill="#ffffb3" stroke="transparent" points="601,-10 601,-30 621,-30 621,-10 601,-10"/>
<text text-anchor="start" x="624.63" y="-15.4" font-family="Times-12" font-size="14.00"> &#160;Declarations</text>
<polygon fill="#8dd3c7" stroke="transparent" points="714,-10 714,-30 734,-30 734,-10 714,-10"/>
<text text-anchor="start" x="737.73" y="-15.4" font-family="Times-12" font-size="14.00"> &#160;Module</text>
<polygon fill="#80b1d3" stroke="transparent" points="800,-10 800,-30 820,-30 820,-10 800,-10"/>
<text text-anchor="start" x="823.78" y="-15.4" font-family="Times-12" font-size="14.00"> &#160;Bootstrap</text>
<polygon fill="#fdb462" stroke="transparent" points="897,-10 897,-30 917,-30 917,-10 897,-10"/>
<text text-anchor="start" x="920.67" y="-15.4" font-family="Times-12" font-size="14.00"> &#160;Providers</text>
<polygon fill="#fb8072" stroke="transparent" points="993,-10 993,-30 1013,-30 1013,-10 993,-10"/>
<text text-anchor="start" x="1016.73" y="-15.4" font-family="Times-12" font-size="14.00"> &#160;Exports</text>
<g id="clust1" class="cluster">
<title>cluster_AppModule</title>
<polygon fill="none" stroke="black" stroke-dasharray="1,5" points="8,-70 8,-195 1662,-195 1662,-70 8,-70"/>
</g>
<g id="clust3" class="cluster">
<title>cluster_AppModule_imports</title>
<polygon fill="none" stroke="black" points="154,-78 154,-130 1654,-130 1654,-78 154,-78"/>
</g>
<g id="clust6" class="cluster">
<title>cluster_AppModule_providers</title>
<polygon fill="none" stroke="black" points="16,-78 16,-130 146,-130 146,-78 16,-78"/>
</g>
<!-- AlsModule -->
<g id="node1" class="node">
<title>AlsModule</title>
<polygon fill="#8dd3c7" stroke="black" points="1646.49,-122 1643.49,-126 1622.49,-126 1619.49,-122 1567.51,-122 1567.51,-86 1646.49,-86 1646.49,-122"/>
<text text-anchor="middle" x="1607" y="-99.8" font-family="Times,serif" font-size="14.00">AlsModule</text>
</g>
<!-- AppModule -->
<g id="node13" class="node">
<title>AppModule</title>
<polygon fill="#8dd3c7" stroke="black" points="921.66,-187 918.66,-191 897.66,-191 894.66,-187 838.34,-187 838.34,-151 921.66,-151 921.66,-187"/>
<text text-anchor="middle" x="880" y="-164.8" font-family="Times,serif" font-size="14.00">AppModule</text>
</g>
<!-- AlsModule&#45;&gt;AppModule -->
<g id="edge1" class="edge">
<title>AlsModule&#45;&gt;AppModule</title>
<path fill="none" stroke="black" d="M1607,-122.09C1607,-145.13 1607,-182 1607,-182 1607,-182 931.7,-182 931.7,-182"/>
<polygon fill="black" stroke="black" points="931.7,-178.5 921.7,-182 931.7,-185.5 931.7,-178.5"/>
</g>
<!-- AuthModule -->
<g id="node2" class="node">
<title>AuthModule</title>
<polygon fill="#8dd3c7" stroke="black" points="1549.55,-122 1546.55,-126 1525.55,-126 1522.55,-122 1462.45,-122 1462.45,-86 1549.55,-86 1549.55,-122"/>
<text text-anchor="middle" x="1506" y="-99.8" font-family="Times,serif" font-size="14.00">AuthModule</text>
</g>
<!-- AuthModule&#45;&gt;AppModule -->
<g id="edge2" class="edge">
<title>AuthModule&#45;&gt;AppModule</title>
<path fill="none" stroke="black" d="M1506,-122.04C1506,-143.66 1506,-177 1506,-177 1506,-177 932.05,-177 932.05,-177"/>
<polygon fill="black" stroke="black" points="932.05,-173.5 922.05,-177 932.05,-180.5 932.05,-173.5"/>
</g>
<!-- CatsModule -->
<g id="node3" class="node">
<title>CatsModule</title>
<polygon fill="#8dd3c7" stroke="black" points="1444.44,-122 1441.44,-126 1420.44,-126 1417.44,-122 1359.56,-122 1359.56,-86 1444.44,-86 1444.44,-122"/>
<text text-anchor="middle" x="1402" y="-99.8" font-family="Times,serif" font-size="14.00">CatsModule</text>
</g>
<!-- CatsModule&#45;&gt;AppModule -->
<g id="edge3" class="edge">
<title>CatsModule&#45;&gt;AppModule</title>
<path fill="none" stroke="black" d="M1402,-122.22C1402,-142.37 1402,-172 1402,-172 1402,-172 931.84,-172 931.84,-172"/>
<polygon fill="black" stroke="black" points="931.84,-168.5 921.84,-172 931.84,-175.5 931.84,-168.5"/>
</g>
<!-- ClsModule -->
<g id="node4" class="node">
<title>ClsModule</title>
<polygon fill="#8dd3c7" stroke="black" points="1342.22,-122 1339.22,-126 1318.22,-126 1315.22,-122 1263.78,-122 1263.78,-86 1342.22,-86 1342.22,-122"/>
<text text-anchor="middle" x="1303" y="-99.8" font-family="Times,serif" font-size="14.00">ClsModule</text>
</g>
<!-- ClsModule&#45;&gt;AppModule -->
<g id="edge4" class="edge">
<title>ClsModule&#45;&gt;AppModule</title>
<path fill="none" stroke="black" d="M1303,-122.22C1303,-140.83 1303,-167 1303,-167 1303,-167 931.72,-167 931.72,-167"/>
<polygon fill="black" stroke="black" points="931.72,-163.5 921.72,-167 931.72,-170.5 931.72,-163.5"/>
</g>
<!-- CoreRedisModule -->
<g id="node5" class="node">
<title>CoreRedisModule</title>
<polygon fill="#8dd3c7" stroke="black" points="1246.15,-122 1243.15,-126 1222.15,-126 1219.15,-122 1127.85,-122 1127.85,-86 1246.15,-86 1246.15,-122"/>
<text text-anchor="middle" x="1187" y="-99.8" font-family="Times,serif" font-size="14.00">CoreRedisModule</text>
</g>
<!-- CoreRedisModule&#45;&gt;AppModule -->
<g id="edge5" class="edge">
<title>CoreRedisModule&#45;&gt;AppModule</title>
<path fill="none" stroke="black" d="M1187,-122.03C1187,-139.06 1187,-162 1187,-162 1187,-162 931.72,-162 931.72,-162"/>
<polygon fill="black" stroke="black" points="931.72,-158.5 921.72,-162 931.72,-165.5 931.72,-158.5"/>
</g>
<!-- InvoiceDetailsModule -->
<g id="node6" class="node">
<title>InvoiceDetailsModule</title>
<polygon fill="#8dd3c7" stroke="black" points="1109.68,-122 1106.68,-126 1085.68,-126 1082.68,-122 968.32,-122 968.32,-86 1109.68,-86 1109.68,-122"/>
<text text-anchor="middle" x="1039" y="-99.8" font-family="Times,serif" font-size="14.00">InvoiceDetailsModule</text>
</g>
<!-- InvoiceDetailsModule&#45;&gt;AppModule -->
<g id="edge6" class="edge">
<title>InvoiceDetailsModule&#45;&gt;AppModule</title>
<path fill="none" stroke="black" d="M1039,-122.24C1039,-137.57 1039,-157 1039,-157 1039,-157 931.78,-157 931.78,-157"/>
<polygon fill="black" stroke="black" points="931.78,-153.5 921.78,-157 931.78,-160.5 931.78,-153.5"/>
</g>
<!-- InvoiceMasterModule -->
<g id="node7" class="node">
<title>InvoiceMasterModule</title>
<polygon fill="#8dd3c7" stroke="black" points="950.4,-122 947.4,-126 926.4,-126 923.4,-122 809.6,-122 809.6,-86 950.4,-86 950.4,-122"/>
<text text-anchor="middle" x="880" y="-99.8" font-family="Times,serif" font-size="14.00">InvoiceMasterModule</text>
</g>
<!-- InvoiceMasterModule&#45;&gt;AppModule -->
<g id="edge7" class="edge">
<title>InvoiceMasterModule&#45;&gt;AppModule</title>
<path fill="none" stroke="black" d="M880,-122.11C880,-122.11 880,-140.99 880,-140.99"/>
<polygon fill="black" stroke="black" points="876.5,-140.99 880,-150.99 883.5,-140.99 876.5,-140.99"/>
</g>
<!-- OrdersModule -->
<g id="node8" class="node">
<title>OrdersModule</title>
<polygon fill="#8dd3c7" stroke="black" points="791.64,-122 788.64,-126 767.64,-126 764.64,-122 694.36,-122 694.36,-86 791.64,-86 791.64,-122"/>
<text text-anchor="middle" x="743" y="-99.8" font-family="Times,serif" font-size="14.00">OrdersModule</text>
</g>
<!-- OrdersModule&#45;&gt;AppModule -->
<g id="edge8" class="edge">
<title>OrdersModule&#45;&gt;AppModule</title>
<path fill="none" stroke="black" d="M743,-122.24C743,-137.57 743,-157 743,-157 743,-157 828.15,-157 828.15,-157"/>
<polygon fill="black" stroke="black" points="828.15,-160.5 838.15,-157 828.15,-153.5 828.15,-160.5"/>
</g>
<!-- ProductsModule -->
<g id="node9" class="node">
<title>ProductsModule</title>
<polygon fill="#8dd3c7" stroke="black" points="676.04,-122 673.04,-126 652.04,-126 649.04,-122 567.96,-122 567.96,-86 676.04,-86 676.04,-122"/>
<text text-anchor="middle" x="622" y="-99.8" font-family="Times,serif" font-size="14.00">ProductsModule</text>
</g>
<!-- ProductsModule&#45;&gt;AppModule -->
<g id="edge9" class="edge">
<title>ProductsModule&#45;&gt;AppModule</title>
<path fill="none" stroke="black" d="M622,-122.03C622,-139.06 622,-162 622,-162 622,-162 828.26,-162 828.26,-162"/>
<polygon fill="black" stroke="black" points="828.26,-165.5 838.26,-162 828.26,-158.5 828.26,-165.5"/>
</g>
<!-- RabbitMQExampleModule -->
<g id="node10" class="node">
<title>RabbitMQExampleModule</title>
<polygon fill="#8dd3c7" stroke="black" points="549.7,-122 546.7,-126 525.7,-126 522.7,-122 380.3,-122 380.3,-86 549.7,-86 549.7,-122"/>
<text text-anchor="middle" x="465" y="-99.8" font-family="Times,serif" font-size="14.00">RabbitMQExampleModule</text>
</g>
<!-- RabbitMQExampleModule&#45;&gt;AppModule -->
<g id="edge10" class="edge">
<title>RabbitMQExampleModule&#45;&gt;AppModule</title>
<path fill="none" stroke="black" d="M465,-122.22C465,-140.83 465,-167 465,-167 465,-167 828.31,-167 828.31,-167"/>
<polygon fill="black" stroke="black" points="828.31,-170.5 838.31,-167 828.31,-163.5 828.31,-170.5"/>
</g>
<!-- RedisModule -->
<g id="node11" class="node">
<title>RedisModule</title>
<polygon fill="#8dd3c7" stroke="black" points="362.94,-122 359.94,-126 338.94,-126 335.94,-122 271.06,-122 271.06,-86 362.94,-86 362.94,-122"/>
<text text-anchor="middle" x="317" y="-99.8" font-family="Times,serif" font-size="14.00">RedisModule</text>
</g>
<!-- RedisModule&#45;&gt;AppModule -->
<g id="edge11" class="edge">
<title>RedisModule&#45;&gt;AppModule</title>
<path fill="none" stroke="black" d="M317,-122.22C317,-142.37 317,-172 317,-172 317,-172 828.14,-172 828.14,-172"/>
<polygon fill="black" stroke="black" points="828.14,-175.5 838.14,-172 828.14,-168.5 828.14,-175.5"/>
</g>
<!-- UsersModule -->
<g id="node12" class="node">
<title>UsersModule</title>
<polygon fill="#8dd3c7" stroke="black" points="253.92,-122 250.92,-126 229.92,-126 226.92,-122 162.08,-122 162.08,-86 253.92,-86 253.92,-122"/>
<text text-anchor="middle" x="208" y="-99.8" font-family="Times,serif" font-size="14.00">UsersModule</text>
</g>
<!-- UsersModule&#45;&gt;AppModule -->
<g id="edge12" class="edge">
<title>UsersModule&#45;&gt;AppModule</title>
<path fill="none" stroke="black" d="M208,-122.04C208,-143.66 208,-177 208,-177 208,-177 828.22,-177 828.22,-177"/>
<polygon fill="black" stroke="black" points="828.22,-180.5 838.22,-177 828.22,-173.5 828.22,-180.5"/>
</g>
<!-- AppService -->
<g id="node14" class="node">
<title>AppService</title>
<ellipse fill="#fdb462" stroke="black" cx="81" cy="-104" rx="56.74" ry="18"/>
<text text-anchor="middle" x="81" y="-99.8" font-family="Times,serif" font-size="14.00">AppService</text>
</g>
<!-- AppService&#45;&gt;AppModule -->
<g id="edge13" class="edge">
<title>AppService&#45;&gt;AppModule</title>
<path fill="none" stroke="black" d="M81,-122.09C81,-145.13 81,-182 81,-182 81,-182 828.17,-182 828.17,-182"/>
<polygon fill="black" stroke="black" points="828.17,-185.5 838.17,-182 828.17,-178.5 828.17,-185.5"/>
</g>
</g>
</svg>
