<?xml version="1.0" encoding="UTF-8" standalone="no"?>
<!DOCTYPE svg PUBLIC "-//W3C//DTD SVG 1.1//EN"
 "http://www.w3.org/Graphics/SVG/1.1/DTD/svg11.dtd">
<!-- Generated by graphviz version 2.47.0 (20210316.0004)
 -->
<!-- Title: dependencies Pages: 1 -->
<svg width="1248pt" height="363pt"
 viewBox="0.00 0.00 1248.00 363.00" xmlns="http://www.w3.org/2000/svg" xmlns:xlink="http://www.w3.org/1999/xlink">
<g id="graph0" class="graph" transform="scale(1 1) rotate(0) translate(4 359)">
<title>dependencies</title>
<polygon fill="white" stroke="transparent" points="-4,4 -4,-359 1244,-359 1244,4 -4,4"/>
<text text-anchor="start" x="599.01" y="-42.4" font-family="Times-12" font-weight="bold" font-size="14.00">Legend</text>
<polygon fill="#ffffb3" stroke="transparent" points="386,-10 386,-30 406,-30 406,-10 386,-10"/>
<text text-anchor="start" x="409.63" y="-15.4" font-family="Times-12" font-size="14.00"> &#160;Declarations</text>
<polygon fill="#8dd3c7" stroke="transparent" points="499,-10 499,-30 519,-30 519,-10 499,-10"/>
<text text-anchor="start" x="522.73" y="-15.4" font-family="Times-12" font-size="14.00"> &#160;Module</text>
<polygon fill="#80b1d3" stroke="transparent" points="585,-10 585,-30 605,-30 605,-10 585,-10"/>
<text text-anchor="start" x="608.78" y="-15.4" font-family="Times-12" font-size="14.00"> &#160;Bootstrap</text>
<polygon fill="#fdb462" stroke="transparent" points="682,-10 682,-30 702,-30 702,-10 682,-10"/>
<text text-anchor="start" x="705.67" y="-15.4" font-family="Times-12" font-size="14.00"> &#160;Providers</text>
<polygon fill="#fb8072" stroke="transparent" points="778,-10 778,-30 798,-30 798,-10 778,-10"/>
<text text-anchor="start" x="801.73" y="-15.4" font-family="Times-12" font-size="14.00"> &#160;Exports</text>
<g id="clust1" class="cluster">
<title>cluster_AppModule</title>
<polygon fill="none" stroke="black" stroke-dasharray="1,5" points="446,-146 446,-347 950,-347 950,-146 446,-146"/>
</g>
<g id="clust3" class="cluster">
<title>cluster_AppModule_imports</title>
<polygon fill="none" stroke="black" points="592,-154 592,-282 942,-282 942,-154 592,-154"/>
</g>
<g id="clust6" class="cluster">
<title>cluster_AppModule_providers</title>
<polygon fill="none" stroke="black" points="454,-230 454,-282 584,-282 584,-230 454,-230"/>
</g>
<g id="clust7" class="cluster">
<title>cluster_AuthModule</title>
<polygon fill="none" stroke="black" stroke-dasharray="1,5" points="8,-146 8,-214 438,-214 438,-146 8,-146"/>
</g>
<g id="clust12" class="cluster">
<title>cluster_AuthModule_providers</title>
<polygon fill="none" stroke="black" points="16,-154 16,-206 430,-206 430,-154 16,-154"/>
</g>
<g id="clust19" class="cluster">
<title>cluster_OrdersModule</title>
<polygon fill="none" stroke="black" stroke-dasharray="1,5" points="406,-70 406,-138 876,-138 876,-70 406,-70"/>
</g>
<g id="clust24" class="cluster">
<title>cluster_OrdersModule_providers</title>
<polygon fill="none" stroke="black" points="414,-78 414,-130 868,-130 868,-78 414,-78"/>
</g>
<g id="clust31" class="cluster">
<title>cluster_UsersModule</title>
<polygon fill="none" stroke="black" stroke-dasharray="1,5" points="958,-222 958,-290 1232,-290 1232,-222 958,-222"/>
</g>
<g id="clust34" class="cluster">
<title>cluster_UsersModule_exports</title>
<polygon fill="none" stroke="black" points="1114,-230 1114,-282 1224,-282 1224,-230 1114,-230"/>
</g>
<g id="clust36" class="cluster">
<title>cluster_UsersModule_providers</title>
<polygon fill="none" stroke="black" points="966,-230 966,-282 1106,-282 1106,-230 966,-230"/>
</g>
<!-- AuthModule -->
<g id="node1" class="node">
<title>AuthModule</title>
<polygon fill="#8dd3c7" stroke="black" points="687.55,-274 684.55,-278 663.55,-278 660.55,-274 600.45,-274 600.45,-238 687.55,-238 687.55,-274"/>
<text text-anchor="middle" x="644" y="-251.8" font-family="Times,serif" font-size="14.00">AuthModule</text>
</g>
<!-- AppModule -->
<g id="node5" class="node">
<title>AppModule</title>
<polygon fill="#8dd3c7" stroke="black" points="748.66,-339 745.66,-343 724.66,-343 721.66,-339 665.34,-339 665.34,-303 748.66,-303 748.66,-339"/>
<text text-anchor="middle" x="707" y="-316.8" font-family="Times,serif" font-size="14.00">AppModule</text>
</g>
<!-- AuthModule&#45;&gt;AppModule -->
<g id="edge1" class="edge">
<title>AuthModule&#45;&gt;AppModule</title>
<path fill="none" stroke="black" d="M676.47,-274.11C676.47,-274.11 676.47,-292.99 676.47,-292.99"/>
<polygon fill="black" stroke="black" points="672.97,-292.99 676.47,-302.99 679.97,-292.99 672.97,-292.99"/>
</g>
<!-- OrdersModule -->
<g id="node2" class="node">
<title>OrdersModule</title>
<polygon fill="#8dd3c7" stroke="black" points="697.64,-198 694.64,-202 673.64,-202 670.64,-198 600.36,-198 600.36,-162 697.64,-162 697.64,-198"/>
<text text-anchor="middle" x="649" y="-175.8" font-family="Times,serif" font-size="14.00">OrdersModule</text>
</g>
<!-- OrdersModule&#45;&gt;AppModule -->
<g id="edge2" class="edge">
<title>OrdersModule&#45;&gt;AppModule</title>
<path fill="none" stroke="black" d="M692.8,-198.14C692.8,-198.14 692.8,-292.93 692.8,-292.93"/>
<polygon fill="black" stroke="black" points="689.3,-292.92 692.8,-302.93 696.3,-292.93 689.3,-292.92"/>
</g>
<!-- ProductsModule -->
<g id="node3" class="node">
<title>ProductsModule</title>
<polygon fill="#8dd3c7" stroke="black" points="824.04,-198 821.04,-202 800.04,-202 797.04,-198 715.96,-198 715.96,-162 824.04,-162 824.04,-198"/>
<text text-anchor="middle" x="770" y="-175.8" font-family="Times,serif" font-size="14.00">ProductsModule</text>
</g>
<!-- ProductsModule&#45;&gt;AppModule -->
<g id="edge3" class="edge">
<title>ProductsModule&#45;&gt;AppModule</title>
<path fill="none" stroke="black" d="M732.28,-198.14C732.28,-198.14 732.28,-292.93 732.28,-292.93"/>
<polygon fill="black" stroke="black" points="728.78,-292.92 732.28,-302.93 735.78,-292.93 728.78,-292.92"/>
</g>
<!-- UsersModule -->
<g id="node4" class="node">
<title>UsersModule</title>
<polygon fill="#8dd3c7" stroke="black" points="933.92,-198 930.92,-202 909.92,-202 906.92,-198 842.08,-198 842.08,-162 933.92,-162 933.92,-198"/>
<text text-anchor="middle" x="888" y="-175.8" font-family="Times,serif" font-size="14.00">UsersModule</text>
</g>
<!-- UsersModule&#45;&gt;AuthModule -->
<g id="edge6" class="edge">
<title>UsersModule&#45;&gt;AuthModule</title>
<path fill="none" stroke="black" d="M865.14,-198.03C865.14,-218.77 865.14,-250 865.14,-250 865.14,-250 697.69,-250 697.69,-250"/>
<polygon fill="black" stroke="black" points="697.69,-246.5 687.69,-250 697.69,-253.5 697.69,-246.5"/>
</g>
<!-- UsersModule&#45;&gt;AppModule -->
<g id="edge4" class="edge">
<title>UsersModule&#45;&gt;AppModule</title>
<path fill="none" stroke="black" d="M888,-198.14C888,-236.23 888,-321 888,-321 888,-321 758.98,-321 758.98,-321"/>
<polygon fill="black" stroke="black" points="758.98,-317.5 748.98,-321 758.98,-324.5 758.98,-317.5"/>
</g>
<!-- UsersService  -->
<g id="node13" class="node">
<title>UsersService </title>
<polygon fill="#fb8072" stroke="black" points="1215.85,-274 1122.15,-274 1122.15,-238 1215.85,-238 1215.85,-274"/>
<text text-anchor="middle" x="1169" y="-251.8" font-family="Times,serif" font-size="14.00">UsersService </text>
</g>
<!-- UsersModule&#45;&gt;UsersService  -->
<g id="edge14" class="edge">
<title>UsersModule&#45;&gt;UsersService </title>
<path fill="none" stroke="black" stroke-dasharray="5,2" d="M933.77,-180C1013.4,-180 1169,-180 1169,-180 1169,-180 1169,-227.99 1169,-227.99"/>
<polygon fill="black" stroke="black" points="1165.5,-227.99 1169,-237.99 1172.5,-227.99 1165.5,-227.99"/>
</g>
<!-- AppService -->
<g id="node6" class="node">
<title>AppService</title>
<ellipse fill="#fdb462" stroke="black" cx="519" cy="-256" rx="56.74" ry="18"/>
<text text-anchor="middle" x="519" y="-251.8" font-family="Times,serif" font-size="14.00">AppService</text>
</g>
<!-- AppService&#45;&gt;AppModule -->
<g id="edge5" class="edge">
<title>AppService&#45;&gt;AppModule</title>
<path fill="none" stroke="black" d="M519,-274.11C519,-293.34 519,-321 519,-321 519,-321 655.28,-321 655.28,-321"/>
<polygon fill="black" stroke="black" points="655.28,-324.5 665.28,-321 655.28,-317.5 655.28,-324.5"/>
</g>
<!-- AuthService -->
<g id="node7" class="node">
<title>AuthService</title>
<ellipse fill="#fdb462" stroke="black" cx="363" cy="-180" rx="59.11" ry="18"/>
<text text-anchor="middle" x="363" y="-175.8" font-family="Times,serif" font-size="14.00">AuthService</text>
</g>
<!-- AuthService&#45;&gt;AuthModule -->
<g id="edge7" class="edge">
<title>AuthService&#45;&gt;AuthModule</title>
<path fill="none" stroke="black" d="M419.17,-186C485.79,-186 587.9,-186 587.9,-186 587.9,-186 587.9,-256 587.9,-256 587.9,-256 590.35,-256 590.35,-256"/>
<polygon fill="black" stroke="black" points="590.35,-259.5 600.35,-256 590.35,-252.5 590.35,-259.5"/>
</g>
<!-- JwtStrategy -->
<g id="node8" class="node">
<title>JwtStrategy</title>
<ellipse fill="#fdb462" stroke="black" cx="229" cy="-180" rx="56.76" ry="18"/>
<text text-anchor="middle" x="229" y="-175.8" font-family="Times,serif" font-size="14.00">JwtStrategy</text>
</g>
<!-- JwtStrategy&#45;&gt;AuthModule -->
<g id="edge8" class="edge">
<title>JwtStrategy&#45;&gt;AuthModule</title>
<path fill="none" stroke="black" d="M229,-198.24C229,-205.43 229,-212 229,-212 229,-212 658.59,-212 658.59,-212 658.59,-212 658.59,-227.85 658.59,-227.85"/>
<polygon fill="black" stroke="black" points="655.09,-227.85 658.59,-237.85 662.09,-227.85 655.09,-227.85"/>
</g>
<!-- LocalStrategy -->
<g id="node9" class="node">
<title>LocalStrategy</title>
<ellipse fill="#fdb462" stroke="black" cx="89" cy="-180" rx="65.41" ry="18"/>
<text text-anchor="middle" x="89" y="-175.8" font-family="Times,serif" font-size="14.00">LocalStrategy</text>
</g>
<!-- LocalStrategy&#45;&gt;AuthModule -->
<g id="edge9" class="edge">
<title>LocalStrategy&#45;&gt;AuthModule</title>
<path fill="none" stroke="black" d="M89,-198.04C89,-210.56 89,-225 89,-225 89,-225 629.41,-225 629.41,-225 629.41,-225 629.41,-227.97 629.41,-227.97"/>
<polygon fill="black" stroke="black" points="625.91,-227.97 629.41,-237.97 632.91,-227.97 625.91,-227.97"/>
</g>
<!-- OrdersService -->
<g id="node10" class="node">
<title>OrdersService</title>
<ellipse fill="#fdb462" stroke="black" cx="488" cy="-104" rx="66.03" ry="18"/>
<text text-anchor="middle" x="488" y="-99.8" font-family="Times,serif" font-size="14.00">OrdersService</text>
</g>
<!-- OrdersService&#45;&gt;OrdersModule -->
<g id="edge10" class="edge">
<title>OrdersService&#45;&gt;OrdersModule</title>
<path fill="none" stroke="black" d="M508.32,-121.3C508.32,-142.03 508.32,-174 508.32,-174 508.32,-174 590.19,-174 590.19,-174"/>
<polygon fill="black" stroke="black" points="590.19,-177.5 600.19,-174 590.19,-170.5 590.19,-177.5"/>
</g>
<!-- ProductsService -->
<g id="node11" class="node">
<title>ProductsService</title>
<ellipse fill="#fdb462" stroke="black" cx="786" cy="-104" rx="73.57" ry="18"/>
<text text-anchor="middle" x="786" y="-99.8" font-family="Times,serif" font-size="14.00">ProductsService</text>
</g>
<!-- ProductsService&#45;&gt;OrdersModule -->
<g id="edge11" class="edge">
<title>ProductsService&#45;&gt;OrdersModule</title>
<path fill="none" stroke="black" d="M712.2,-104C707.75,-104 705.02,-104 705.02,-104 705.02,-104 705.02,-180 705.02,-180 705.02,-180 704.28,-180 704.28,-180"/>
<polygon fill="black" stroke="black" points="707.69,-176.5 697.69,-180 707.69,-183.5 707.69,-176.5"/>
</g>
<!-- ProductsService&#45;&gt;ProductsModule -->
<g id="edge13" class="edge">
<title>ProductsService&#45;&gt;ProductsModule</title>
<path fill="none" stroke="black" d="M770,-121.63C770,-121.63 770,-151.94 770,-151.94"/>
<polygon fill="black" stroke="black" points="766.5,-151.94 770,-161.94 773.5,-151.94 766.5,-151.94"/>
</g>
<!-- TestProvider -->
<g id="node12" class="node">
<title>TestProvider</title>
<ellipse fill="#fdb462" stroke="black" cx="633" cy="-104" rx="60.83" ry="18"/>
<text text-anchor="middle" x="633" y="-99.8" font-family="Times,serif" font-size="14.00">TestProvider</text>
</g>
<!-- TestProvider&#45;&gt;OrdersModule -->
<g id="edge12" class="edge">
<title>TestProvider&#45;&gt;OrdersModule</title>
<path fill="none" stroke="black" d="M647.05,-121.63C647.05,-121.63 647.05,-151.94 647.05,-151.94"/>
<polygon fill="black" stroke="black" points="643.55,-151.94 647.05,-161.94 650.55,-151.94 643.55,-151.94"/>
</g>
<!-- UsersService -->
<g id="node14" class="node">
<title>UsersService</title>
<ellipse fill="#fdb462" stroke="black" cx="1036" cy="-256" rx="61.95" ry="18"/>
<text text-anchor="middle" x="1036" y="-251.8" font-family="Times,serif" font-size="14.00">UsersService</text>
</g>
<!-- UsersService&#45;&gt;UsersModule -->
<g id="edge15" class="edge">
<title>UsersService&#45;&gt;UsersModule</title>
<path fill="none" stroke="black" d="M977.46,-262C944.89,-262 910.86,-262 910.86,-262 910.86,-262 910.86,-208.2 910.86,-208.2"/>
<polygon fill="black" stroke="black" points="914.36,-208.2 910.86,-198.2 907.36,-208.2 914.36,-208.2"/>
</g>
</g>
</svg>
