<?xml version="1.0" encoding="UTF-8" standalone="no"?>
<!DOCTYPE svg PUBLIC "-//W3C//DTD SVG 1.1//EN"
 "http://www.w3.org/Graphics/SVG/1.1/DTD/svg11.dtd">
<!-- Generated by graphviz version 2.47.0 (20210316.0004)
 -->
<!-- Title: dependencies Pages: 1 -->
<svg width="4950pt" height="363pt"
 viewBox="0.00 0.00 4950.00 363.00" xmlns="http://www.w3.org/2000/svg" xmlns:xlink="http://www.w3.org/1999/xlink">
<g id="graph0" class="graph" transform="scale(1 1) rotate(0) translate(4 359)">
<title>dependencies</title>
<polygon fill="white" stroke="transparent" points="-4,4 -4,-359 4946,-359 4946,4 -4,4"/>
<text text-anchor="start" x="2450.01" y="-42.4" font-family="Times-12" font-weight="bold" font-size="14.00">Legend</text>
<polygon fill="#ffffb3" stroke="transparent" points="2237,-10 2237,-30 2257,-30 2257,-10 2237,-10"/>
<text text-anchor="start" x="2260.63" y="-15.4" font-family="Times-12" font-size="14.00"> &#160;Declarations</text>
<polygon fill="#8dd3c7" stroke="transparent" points="2350,-10 2350,-30 2370,-30 2370,-10 2350,-10"/>
<text text-anchor="start" x="2373.73" y="-15.4" font-family="Times-12" font-size="14.00"> &#160;Module</text>
<polygon fill="#80b1d3" stroke="transparent" points="2436,-10 2436,-30 2456,-30 2456,-10 2436,-10"/>
<text text-anchor="start" x="2459.78" y="-15.4" font-family="Times-12" font-size="14.00"> &#160;Bootstrap</text>
<polygon fill="#fdb462" stroke="transparent" points="2533,-10 2533,-30 2553,-30 2553,-10 2533,-10"/>
<text text-anchor="start" x="2556.67" y="-15.4" font-family="Times-12" font-size="14.00"> &#160;Providers</text>
<polygon fill="#fb8072" stroke="transparent" points="2629,-10 2629,-30 2649,-30 2649,-10 2629,-10"/>
<text text-anchor="start" x="2652.73" y="-15.4" font-family="Times-12" font-size="14.00"> &#160;Exports</text>
<g id="clust1" class="cluster">
<title>cluster_AlsModule</title>
<polygon fill="none" stroke="black" stroke-dasharray="1,5" points="8,-78 8,-214 170,-214 170,-78 8,-78"/>
</g>
<g id="clust4" class="cluster">
<title>cluster_AlsModule_exports</title>
<polygon fill="none" stroke="black" points="16,-154 16,-206 162,-206 162,-154 16,-154"/>
</g>
<g id="clust7" class="cluster">
<title>cluster_AppModule</title>
<polygon fill="none" stroke="black" stroke-dasharray="1,5" points="1052,-146 1052,-347 2389,-347 2389,-146 1052,-146"/>
</g>
<g id="clust9" class="cluster">
<title>cluster_AppModule_imports</title>
<polygon fill="none" stroke="black" points="1198,-154 1198,-282 2381,-282 2381,-154 1198,-154"/>
</g>
<g id="clust12" class="cluster">
<title>cluster_AppModule_providers</title>
<polygon fill="none" stroke="black" points="1060,-230 1060,-282 1190,-282 1190,-230 1060,-230"/>
</g>
<g id="clust13" class="cluster">
<title>cluster_AuthModule</title>
<polygon fill="none" stroke="black" stroke-dasharray="1,5" points="614,-146 614,-214 1044,-214 1044,-146 614,-146"/>
</g>
<g id="clust18" class="cluster">
<title>cluster_AuthModule_providers</title>
<polygon fill="none" stroke="black" points="622,-154 622,-206 1036,-206 1036,-154 622,-154"/>
</g>
<g id="clust19" class="cluster">
<title>cluster_CatsModule</title>
<polygon fill="none" stroke="black" stroke-dasharray="1,5" points="1175,-70 1175,-138 1321,-138 1321,-70 1175,-70"/>
</g>
<g id="clust24" class="cluster">
<title>cluster_CatsModule_providers</title>
<polygon fill="none" stroke="black" points="1183,-78 1183,-130 1313,-130 1313,-78 1183,-78"/>
</g>
<g id="clust25" class="cluster">
<title>cluster_ClsModule</title>
<polygon fill="none" stroke="black" stroke-dasharray="1,5" points="3317,-222 3317,-290 3621,-290 3621,-222 3317,-222"/>
</g>
<g id="clust28" class="cluster">
<title>cluster_ClsModule_exports</title>
<polygon fill="none" stroke="black" points="3491,-230 3491,-282 3613,-282 3613,-230 3491,-230"/>
</g>
<g id="clust30" class="cluster">
<title>cluster_ClsModule_providers</title>
<polygon fill="none" stroke="black" points="3325,-230 3325,-282 3483,-282 3483,-230 3325,-230"/>
</g>
<g id="clust43" class="cluster">
<title>cluster_InvoiceDetailsModule</title>
<polygon fill="none" stroke="black" stroke-dasharray="1,5" points="1367,-70 1367,-138 1591,-138 1591,-70 1367,-70"/>
</g>
<g id="clust48" class="cluster">
<title>cluster_InvoiceDetailsModule_providers</title>
<polygon fill="none" stroke="black" points="1375,-78 1375,-130 1583,-130 1583,-78 1375,-78"/>
</g>
<g id="clust49" class="cluster">
<title>cluster_InvoiceMasterModule</title>
<polygon fill="none" stroke="black" stroke-dasharray="1,5" points="1599,-70 1599,-138 1823,-138 1823,-70 1599,-70"/>
</g>
<g id="clust54" class="cluster">
<title>cluster_InvoiceMasterModule_providers</title>
<polygon fill="none" stroke="black" points="1607,-78 1607,-130 1815,-130 1815,-78 1607,-78"/>
</g>
<g id="clust55" class="cluster">
<title>cluster_OrdersModule</title>
<polygon fill="none" stroke="black" stroke-dasharray="1,5" points="178,-146 178,-214 606,-214 606,-146 178,-146"/>
</g>
<g id="clust58" class="cluster">
<title>cluster_OrdersModule_exports</title>
<polygon fill="none" stroke="black" points="482,-154 482,-206 598,-206 598,-154 482,-154"/>
</g>
<g id="clust60" class="cluster">
<title>cluster_OrdersModule_providers</title>
<polygon fill="none" stroke="black" points="186,-154 186,-206 474,-206 474,-154 186,-154"/>
</g>
<g id="clust61" class="cluster">
<title>cluster_ProductsModule</title>
<polygon fill="none" stroke="black" stroke-dasharray="1,5" points="3629,-222 3629,-290 3943,-290 3943,-222 3629,-222"/>
</g>
<g id="clust64" class="cluster">
<title>cluster_ProductsModule_exports</title>
<polygon fill="none" stroke="black" points="3809,-230 3809,-282 3935,-282 3935,-230 3809,-230"/>
</g>
<g id="clust66" class="cluster">
<title>cluster_ProductsModule_providers</title>
<polygon fill="none" stroke="black" points="3637,-230 3637,-282 3801,-282 3801,-230 3637,-230"/>
</g>
<g id="clust67" class="cluster">
<title>cluster_RabbitMQExampleModule</title>
<polygon fill="none" stroke="black" stroke-dasharray="1,5" points="2674,-70 2674,-138 2826,-138 2826,-70 2674,-70"/>
</g>
<g id="clust69" class="cluster">
<title>cluster_RabbitMQExampleModule_imports</title>
<polygon fill="none" stroke="black" points="2682,-78 2682,-130 2818,-130 2818,-78 2682,-78"/>
</g>
<g id="clust73" class="cluster">
<title>cluster_RabbitMQModule</title>
<polygon fill="none" stroke="black" stroke-dasharray="1,5" points="2397,-146 2397,-214 3179,-214 3179,-146 2397,-146"/>
</g>
<g id="clust76" class="cluster">
<title>cluster_RabbitMQModule_exports</title>
<polygon fill="none" stroke="black" points="2762,-154 2762,-206 3171,-206 3171,-154 2762,-154"/>
</g>
<g id="clust78" class="cluster">
<title>cluster_RabbitMQModule_providers</title>
<polygon fill="none" stroke="black" points="2405,-154 2405,-206 2754,-206 2754,-154 2405,-154"/>
</g>
<g id="clust79" class="cluster">
<title>cluster_RedisModule</title>
<polygon fill="none" stroke="black" stroke-dasharray="1,5" points="2397,-222 2397,-290 3027,-290 3027,-222 2397,-222"/>
</g>
<g id="clust82" class="cluster">
<title>cluster_RedisModule_exports</title>
<polygon fill="none" stroke="black" points="2755,-230 2755,-282 3019,-282 3019,-230 2755,-230"/>
</g>
<g id="clust84" class="cluster">
<title>cluster_RedisModule_providers</title>
<polygon fill="none" stroke="black" points="2405,-230 2405,-282 2747,-282 2747,-230 2405,-230"/>
</g>
<g id="clust85" class="cluster">
<title>cluster_TasksModule</title>
<polygon fill="none" stroke="black" stroke-dasharray="1,5" points="3951,-70 3951,-290 4109,-290 4109,-70 3951,-70"/>
</g>
<g id="clust88" class="cluster">
<title>cluster_TasksModule_exports</title>
<polygon fill="none" stroke="black" points="3975,-230 3975,-282 4085,-282 4085,-230 3975,-230"/>
</g>
<g id="clust90" class="cluster">
<title>cluster_TasksModule_providers</title>
<polygon fill="none" stroke="black" points="3959,-78 3959,-130 4101,-130 4101,-78 3959,-78"/>
</g>
<g id="clust91" class="cluster">
<title>cluster_TemplatePlaygroundModule</title>
<polygon fill="none" stroke="black" stroke-dasharray="1,5" points="4117,-70 4117,-290 4934,-290 4934,-70 4117,-70"/>
</g>
<g id="clust92" class="cluster">
<title>cluster_TemplatePlaygroundModule_declarations</title>
<polygon fill="none" stroke="black" points="4712,-78 4712,-130 4926,-130 4926,-78 4712,-78"/>
</g>
<g id="clust96" class="cluster">
<title>cluster_TemplatePlaygroundModule_bootstrap</title>
<polygon fill="none" stroke="black" points="4403,-230 4403,-282 4621,-282 4621,-230 4403,-230"/>
</g>
<g id="clust97" class="cluster">
<title>cluster_TemplatePlaygroundModule_providers</title>
<polygon fill="none" stroke="black" points="4125,-78 4125,-130 4704,-130 4704,-78 4125,-78"/>
</g>
<g id="clust98" class="cluster">
<title>cluster_UsersModule</title>
<polygon fill="none" stroke="black" stroke-dasharray="1,5" points="3035,-222 3035,-290 3309,-290 3309,-222 3035,-222"/>
</g>
<g id="clust101" class="cluster">
<title>cluster_UsersModule_exports</title>
<polygon fill="none" stroke="black" points="3191,-230 3191,-282 3301,-282 3301,-230 3191,-230"/>
</g>
<g id="clust103" class="cluster">
<title>cluster_UsersModule_providers</title>
<polygon fill="none" stroke="black" points="3043,-230 3043,-282 3183,-282 3183,-230 3043,-230"/>
</g>
<!-- AsyncLocalStorage  -->
<g id="node1" class="node">
<title>AsyncLocalStorage </title>
<polygon fill="#fb8072" stroke="black" points="153.9,-198 24.1,-198 24.1,-162 153.9,-162 153.9,-198"/>
<text text-anchor="middle" x="89" y="-175.8" font-family="Times,serif" font-size="14.00">AsyncLocalStorage </text>
</g>
<!-- AlsModule -->
<g id="node2" class="node">
<title>AlsModule</title>
<polygon fill="#8dd3c7" stroke="black" points="128.49,-122 125.49,-126 104.49,-126 101.49,-122 49.51,-122 49.51,-86 128.49,-86 128.49,-122"/>
<text text-anchor="middle" x="89" y="-99.8" font-family="Times,serif" font-size="14.00">AlsModule</text>
</g>
<!-- AlsModule&#45;&gt;AsyncLocalStorage  -->
<g id="edge1" class="edge">
<title>AlsModule&#45;&gt;AsyncLocalStorage </title>
<path fill="none" stroke="black" stroke-dasharray="5,2" d="M89,-122.01C89,-122.01 89,-151.85 89,-151.85"/>
<polygon fill="black" stroke="black" points="85.5,-151.85 89,-161.85 92.5,-151.85 85.5,-151.85"/>
</g>
<!-- CatsModule -->
<g id="node4" class="node">
<title>CatsModule</title>
<polygon fill="#8dd3c7" stroke="black" points="1290.44,-198 1287.44,-202 1266.44,-202 1263.44,-198 1205.56,-198 1205.56,-162 1290.44,-162 1290.44,-198"/>
<text text-anchor="middle" x="1248" y="-175.8" font-family="Times,serif" font-size="14.00">CatsModule</text>
</g>
<!-- AlsModule&#45;&gt;CatsModule -->
<g id="edge19" class="edge">
<title>AlsModule&#45;&gt;CatsModule</title>
<path fill="none" stroke="black" d="M128.66,-98C318.48,-98 1125,-98 1125,-98 1125,-98 1125,-180 1125,-180 1125,-180 1195.67,-180 1195.67,-180"/>
<polygon fill="black" stroke="black" points="1195.67,-183.5 1205.67,-180 1195.67,-176.5 1195.67,-183.5"/>
</g>
<!-- AppModule -->
<g id="node14" class="node">
<title>AppModule</title>
<polygon fill="#8dd3c7" stroke="black" points="1557.66,-339 1554.66,-343 1533.66,-343 1530.66,-339 1474.34,-339 1474.34,-303 1557.66,-303 1557.66,-339"/>
<text text-anchor="middle" x="1516" y="-316.8" font-family="Times,serif" font-size="14.00">AppModule</text>
</g>
<!-- AlsModule&#45;&gt;AppModule -->
<g id="edge2" class="edge">
<title>AlsModule&#45;&gt;AppModule</title>
<path fill="none" stroke="black" d="M128.74,-110C195.95,-110 324.83,-110 324.83,-110 324.83,-110 324.83,-332 324.83,-332 324.83,-332 1464.3,-332 1464.3,-332"/>
<polygon fill="black" stroke="black" points="1464.3,-335.5 1474.3,-332 1464.3,-328.5 1464.3,-335.5"/>
</g>
<!-- AuthModule -->
<g id="node3" class="node">
<title>AuthModule</title>
<polygon fill="#8dd3c7" stroke="black" points="1409.55,-274 1406.55,-278 1385.55,-278 1382.55,-274 1322.45,-274 1322.45,-238 1409.55,-238 1409.55,-274"/>
<text text-anchor="middle" x="1366" y="-251.8" font-family="Times,serif" font-size="14.00">AuthModule</text>
</g>
<!-- AuthModule&#45;&gt;AppModule -->
<g id="edge3" class="edge">
<title>AuthModule&#45;&gt;AppModule</title>
<path fill="none" stroke="black" d="M1409.7,-265C1447.15,-265 1495.09,-265 1495.09,-265 1495.09,-265 1495.09,-292.97 1495.09,-292.97"/>
<polygon fill="black" stroke="black" points="1491.59,-292.97 1495.09,-302.97 1498.59,-292.97 1491.59,-292.97"/>
</g>
<!-- CatsModule&#45;&gt;AppModule -->
<g id="edge4" class="edge">
<title>CatsModule&#45;&gt;AppModule</title>
<path fill="none" stroke="black" d="M1273.41,-198.49C1273.41,-210.14 1273.41,-223 1273.41,-223 1273.41,-223 1516,-223 1516,-223 1516,-223 1516,-292.57 1516,-292.57"/>
<polygon fill="black" stroke="black" points="1512.5,-292.57 1516,-302.57 1519.5,-292.57 1512.5,-292.57"/>
</g>
<!-- ClsModule -->
<g id="node5" class="node">
<title>ClsModule</title>
<polygon fill="#8dd3c7" stroke="black" points="2247.22,-198 2244.22,-202 2223.22,-202 2220.22,-198 2168.78,-198 2168.78,-162 2247.22,-162 2247.22,-198"/>
<text text-anchor="middle" x="2208" y="-175.8" font-family="Times,serif" font-size="14.00">ClsModule</text>
</g>
<!-- ClsModule&#45;&gt;AppModule -->
<g id="edge5" class="edge">
<title>ClsModule&#45;&gt;AppModule</title>
<path fill="none" stroke="black" d="M2227.56,-198.27C2227.56,-238.06 2227.56,-329 2227.56,-329 2227.56,-329 1567.85,-329 1567.85,-329"/>
<polygon fill="black" stroke="black" points="1567.85,-325.5 1557.85,-329 1567.85,-332.5 1567.85,-325.5"/>
</g>
<!-- ContextService  -->
<g id="node20" class="node">
<title>ContextService </title>
<polygon fill="#fb8072" stroke="black" points="3604.81,-274 3499.19,-274 3499.19,-238 3604.81,-238 3604.81,-274"/>
<text text-anchor="middle" x="3552" y="-251.8" font-family="Times,serif" font-size="14.00">ContextService </text>
</g>
<!-- ClsModule&#45;&gt;ContextService  -->
<g id="edge21" class="edge">
<title>ClsModule&#45;&gt;ContextService </title>
<path fill="none" stroke="black" stroke-dasharray="5,2" d="M2188.44,-198.17C2188.44,-202.05 2188.44,-205 2188.44,-205 2188.44,-205 3552,-205 3552,-205 3552,-205 3552,-227.88 3552,-227.88"/>
<polygon fill="black" stroke="black" points="3548.5,-227.88 3552,-237.88 3555.5,-227.88 3548.5,-227.88"/>
</g>
<!-- CoreRedisModule -->
<g id="node6" class="node">
<title>CoreRedisModule</title>
<polygon fill="#8dd3c7" stroke="black" points="1427.15,-198 1424.15,-202 1403.15,-202 1400.15,-198 1308.85,-198 1308.85,-162 1427.15,-162 1427.15,-198"/>
<text text-anchor="middle" x="1368" y="-175.8" font-family="Times,serif" font-size="14.00">CoreRedisModule</text>
</g>
<!-- CoreRedisModule&#45;&gt;AppModule -->
<g id="edge6" class="edge">
<title>CoreRedisModule&#45;&gt;AppModule</title>
<path fill="none" stroke="black" d="M1418.55,-198.21C1418.55,-234.21 1418.55,-311 1418.55,-311 1418.55,-311 1464.11,-311 1464.11,-311"/>
<polygon fill="black" stroke="black" points="1464.11,-314.5 1474.11,-311 1464.11,-307.5 1464.11,-314.5"/>
</g>
<!-- InvoiceDetailsModule -->
<g id="node7" class="node">
<title>InvoiceDetailsModule</title>
<polygon fill="#8dd3c7" stroke="black" points="1586.68,-198 1583.68,-202 1562.68,-202 1559.68,-198 1445.32,-198 1445.32,-162 1586.68,-162 1586.68,-198"/>
<text text-anchor="middle" x="1516" y="-175.8" font-family="Times,serif" font-size="14.00">InvoiceDetailsModule</text>
</g>
<!-- InvoiceDetailsModule&#45;&gt;AppModule -->
<g id="edge7" class="edge">
<title>InvoiceDetailsModule&#45;&gt;AppModule</title>
<path fill="none" stroke="black" d="M1536.91,-198.14C1536.91,-198.14 1536.91,-292.93 1536.91,-292.93"/>
<polygon fill="black" stroke="black" points="1533.41,-292.92 1536.91,-302.93 1540.41,-292.93 1533.41,-292.92"/>
</g>
<!-- InvoiceMasterModule -->
<g id="node8" class="node">
<title>InvoiceMasterModule</title>
<polygon fill="#8dd3c7" stroke="black" points="1745.4,-198 1742.4,-202 1721.4,-202 1718.4,-198 1604.6,-198 1604.6,-162 1745.4,-162 1745.4,-198"/>
<text text-anchor="middle" x="1675" y="-175.8" font-family="Times,serif" font-size="14.00">InvoiceMasterModule</text>
</g>
<!-- InvoiceMasterModule&#45;&gt;AppModule -->
<g id="edge8" class="edge">
<title>InvoiceMasterModule&#45;&gt;AppModule</title>
<path fill="none" stroke="black" d="M1675,-198.21C1675,-233.77 1675,-309 1675,-309 1675,-309 1567.78,-309 1567.78,-309"/>
<polygon fill="black" stroke="black" points="1567.78,-305.5 1557.78,-309 1567.78,-312.5 1567.78,-305.5"/>
</g>
<!-- OrdersModule -->
<g id="node9" class="node">
<title>OrdersModule</title>
<polygon fill="#8dd3c7" stroke="black" points="1303.64,-274 1300.64,-278 1279.64,-278 1276.64,-274 1206.36,-274 1206.36,-238 1303.64,-238 1303.64,-274"/>
<text text-anchor="middle" x="1255" y="-251.8" font-family="Times,serif" font-size="14.00">OrdersModule</text>
</g>
<!-- OrdersModule&#45;&gt;AppModule -->
<g id="edge9" class="edge">
<title>OrdersModule&#45;&gt;AppModule</title>
<path fill="none" stroke="black" d="M1255,-274.27C1255,-292.56 1255,-318 1255,-318 1255,-318 1464.07,-318 1464.07,-318"/>
<polygon fill="black" stroke="black" points="1464.07,-321.5 1474.07,-318 1464.07,-314.5 1464.07,-321.5"/>
</g>
<!-- OrdersService  -->
<g id="node24" class="node">
<title>OrdersService </title>
<polygon fill="#fb8072" stroke="black" points="589.57,-198 490.43,-198 490.43,-162 589.57,-162 589.57,-198"/>
<text text-anchor="middle" x="540" y="-175.8" font-family="Times,serif" font-size="14.00">OrdersService </text>
</g>
<!-- OrdersModule&#45;&gt;OrdersService  -->
<g id="edge26" class="edge">
<title>OrdersModule&#45;&gt;OrdersService </title>
<path fill="none" stroke="black" stroke-dasharray="5,2" d="M1256.6,-237.81C1256.6,-234.46 1256.6,-232 1256.6,-232 1256.6,-232 540,-232 540,-232 540,-232 540,-208.19 540,-208.19"/>
<polygon fill="black" stroke="black" points="543.5,-208.19 540,-198.19 536.5,-208.19 543.5,-208.19"/>
</g>
<!-- ProductsModule -->
<g id="node10" class="node">
<title>ProductsModule</title>
<polygon fill="#8dd3c7" stroke="black" points="2373.04,-198 2370.04,-202 2349.04,-202 2346.04,-198 2264.96,-198 2264.96,-162 2373.04,-162 2373.04,-198"/>
<text text-anchor="middle" x="2319" y="-175.8" font-family="Times,serif" font-size="14.00">ProductsModule</text>
</g>
<!-- ProductsModule&#45;&gt;OrdersModule -->
<g id="edge25" class="edge">
<title>ProductsModule&#45;&gt;OrdersModule</title>
<path fill="none" stroke="black" d="M2286.44,-198.24C2286.44,-205.43 2286.44,-212 2286.44,-212 2286.44,-212 1297.02,-212 1297.02,-212 1297.02,-212 1297.02,-227.85 1297.02,-227.85"/>
<polygon fill="black" stroke="black" points="1293.52,-227.85 1297.02,-237.85 1300.52,-227.85 1293.52,-227.85"/>
</g>
<!-- ProductsModule&#45;&gt;AppModule -->
<g id="edge10" class="edge">
<title>ProductsModule&#45;&gt;AppModule</title>
<path fill="none" stroke="black" d="M2351.56,-198.27C2351.56,-239.06 2351.56,-334 2351.56,-334 2351.56,-334 1567.72,-334 1567.72,-334"/>
<polygon fill="black" stroke="black" points="1567.72,-330.5 1557.72,-334 1567.72,-337.5 1567.72,-330.5"/>
</g>
<!-- ProductsService  -->
<g id="node27" class="node">
<title>ProductsService </title>
<polygon fill="#fb8072" stroke="black" points="3927.47,-274 3816.53,-274 3816.53,-238 3927.47,-238 3927.47,-274"/>
<text text-anchor="middle" x="3872" y="-251.8" font-family="Times,serif" font-size="14.00">ProductsService </text>
</g>
<!-- ProductsModule&#45;&gt;ProductsService  -->
<g id="edge29" class="edge">
<title>ProductsModule&#45;&gt;ProductsService </title>
<path fill="none" stroke="black" stroke-dasharray="5,2" d="M2308.15,-198.08C2308.15,-199.85 2308.15,-201 2308.15,-201 2308.15,-201 3872,-201 3872,-201 3872,-201 3872,-227.99 3872,-227.99"/>
<polygon fill="black" stroke="black" points="3868.5,-227.99 3872,-237.99 3875.5,-227.99 3868.5,-227.99"/>
</g>
<!-- RabbitMQExampleModule -->
<g id="node11" class="node">
<title>RabbitMQExampleModule</title>
<polygon fill="#8dd3c7" stroke="black" points="1932.7,-198 1929.7,-202 1908.7,-202 1905.7,-198 1763.3,-198 1763.3,-162 1932.7,-162 1932.7,-198"/>
<text text-anchor="middle" x="1848" y="-175.8" font-family="Times,serif" font-size="14.00">RabbitMQExampleModule</text>
</g>
<!-- RabbitMQExampleModule&#45;&gt;AppModule -->
<g id="edge11" class="edge">
<title>RabbitMQExampleModule&#45;&gt;AppModule</title>
<path fill="none" stroke="black" d="M1848,-198.07C1848,-234.65 1848,-314 1848,-314 1848,-314 1567.71,-314 1567.71,-314"/>
<polygon fill="black" stroke="black" points="1567.71,-310.5 1557.71,-314 1567.71,-317.5 1567.71,-310.5"/>
</g>
<!-- RedisModule -->
<g id="node12" class="node">
<title>RedisModule</title>
<polygon fill="#8dd3c7" stroke="black" points="2041.94,-198 2038.94,-202 2017.94,-202 2014.94,-198 1950.06,-198 1950.06,-162 2041.94,-162 2041.94,-198"/>
<text text-anchor="middle" x="1996" y="-175.8" font-family="Times,serif" font-size="14.00">RedisModule</text>
</g>
<!-- RedisModule&#45;&gt;AppModule -->
<g id="edge12" class="edge">
<title>RedisModule&#45;&gt;AppModule</title>
<path fill="none" stroke="black" d="M2011.24,-198.17C2011.24,-235.85 2011.24,-319 2011.24,-319 2011.24,-319 1567.8,-319 1567.8,-319"/>
<polygon fill="black" stroke="black" points="1567.8,-315.5 1557.8,-319 1567.8,-322.5 1567.8,-315.5"/>
</g>
<!-- RedisPubSubService  -->
<g id="node35" class="node">
<title>RedisPubSubService </title>
<polygon fill="#fb8072" stroke="black" points="2899.43,-274 2762.57,-274 2762.57,-238 2899.43,-238 2899.43,-274"/>
<text text-anchor="middle" x="2831" y="-251.8" font-family="Times,serif" font-size="14.00">RedisPubSubService </text>
</g>
<!-- RedisModule&#45;&gt;RedisPubSubService  -->
<g id="edge37" class="edge">
<title>RedisModule&#45;&gt;RedisPubSubService </title>
<path fill="none" stroke="black" stroke-dasharray="5,2" d="M1965.52,-198.11C1965.52,-207.9 1965.52,-218 1965.52,-218 1965.52,-218 2766.43,-218 2766.43,-218 2766.43,-218 2766.43,-227.89 2766.43,-227.89"/>
<polygon fill="black" stroke="black" points="2762.93,-227.89 2766.43,-237.89 2769.93,-227.89 2762.93,-227.89"/>
</g>
<!-- RedisService  -->
<g id="node36" class="node">
<title>RedisService </title>
<polygon fill="#fb8072" stroke="black" points="3010.86,-274 2917.14,-274 2917.14,-238 3010.86,-238 3010.86,-274"/>
<text text-anchor="middle" x="2964" y="-251.8" font-family="Times,serif" font-size="14.00">RedisService </text>
</g>
<!-- RedisModule&#45;&gt;RedisService  -->
<g id="edge38" class="edge">
<title>RedisModule&#45;&gt;RedisService </title>
<path fill="none" stroke="black" stroke-dasharray="5,2" d="M1980.76,-198.42C1980.76,-207.28 1980.76,-216 1980.76,-216 1980.76,-216 2964,-216 2964,-216 2964,-216 2964,-227.87 2964,-227.87"/>
<polygon fill="black" stroke="black" points="2960.5,-227.87 2964,-237.87 2967.5,-227.87 2960.5,-227.87"/>
</g>
<!-- UsersModule -->
<g id="node13" class="node">
<title>UsersModule</title>
<polygon fill="#8dd3c7" stroke="black" points="2150.92,-198 2147.92,-202 2126.92,-202 2123.92,-198 2059.08,-198 2059.08,-162 2150.92,-162 2150.92,-198"/>
<text text-anchor="middle" x="2105" y="-175.8" font-family="Times,serif" font-size="14.00">UsersModule</text>
</g>
<!-- UsersModule&#45;&gt;AuthModule -->
<g id="edge15" class="edge">
<title>UsersModule&#45;&gt;AuthModule</title>
<path fill="none" stroke="black" d="M2114.14,-198.31C2114.14,-218.15 2114.14,-247 2114.14,-247 2114.14,-247 1419.73,-247 1419.73,-247"/>
<polygon fill="black" stroke="black" points="1419.73,-243.5 1409.73,-247 1419.73,-250.5 1419.73,-243.5"/>
</g>
<!-- UsersModule&#45;&gt;AppModule -->
<g id="edge13" class="edge">
<title>UsersModule&#45;&gt;AppModule</title>
<path fill="none" stroke="black" d="M2132.43,-198.24C2132.43,-236.99 2132.43,-324 2132.43,-324 2132.43,-324 1567.88,-324 1567.88,-324"/>
<polygon fill="black" stroke="black" points="1567.88,-320.5 1557.88,-324 1567.88,-327.5 1567.88,-320.5"/>
</g>
<!-- UsersService  -->
<g id="node48" class="node">
<title>UsersService </title>
<polygon fill="#fb8072" stroke="black" points="3292.85,-274 3199.15,-274 3199.15,-238 3292.85,-238 3292.85,-274"/>
<text text-anchor="middle" x="3246" y="-251.8" font-family="Times,serif" font-size="14.00">UsersService </text>
</g>
<!-- UsersModule&#45;&gt;UsersService  -->
<g id="edge48" class="edge">
<title>UsersModule&#45;&gt;UsersService </title>
<path fill="none" stroke="black" stroke-dasharray="5,2" d="M2077.57,-198.14C2077.57,-204.46 2077.57,-210 2077.57,-210 2077.57,-210 3246,-210 3246,-210 3246,-210 3246,-227.82 3246,-227.82"/>
<polygon fill="black" stroke="black" points="3242.5,-227.82 3246,-237.82 3249.5,-227.82 3242.5,-227.82"/>
</g>
<!-- AppService -->
<g id="node15" class="node">
<title>AppService</title>
<ellipse fill="#fdb462" stroke="black" cx="1125" cy="-256" rx="56.74" ry="18"/>
<text text-anchor="middle" x="1125" y="-251.8" font-family="Times,serif" font-size="14.00">AppService</text>
</g>
<!-- AppService&#45;&gt;AppModule -->
<g id="edge14" class="edge">
<title>AppService&#45;&gt;AppModule</title>
<path fill="none" stroke="black" d="M1125,-274.13C1125,-294.57 1125,-325 1125,-325 1125,-325 1464.16,-325 1464.16,-325"/>
<polygon fill="black" stroke="black" points="1464.16,-328.5 1474.16,-325 1464.16,-321.5 1464.16,-328.5"/>
</g>
<!-- AuthService -->
<g id="node16" class="node">
<title>AuthService</title>
<ellipse fill="#fdb462" stroke="black" cx="969" cy="-180" rx="59.11" ry="18"/>
<text text-anchor="middle" x="969" y="-175.8" font-family="Times,serif" font-size="14.00">AuthService</text>
</g>
<!-- AuthService&#45;&gt;AuthModule -->
<g id="edge16" class="edge">
<title>AuthService&#45;&gt;AuthModule</title>
<path fill="none" stroke="black" d="M969,-198.04C969,-210.56 969,-225 969,-225 969,-225 1387.89,-225 1387.89,-225 1387.89,-225 1387.89,-227.97 1387.89,-227.97"/>
<polygon fill="black" stroke="black" points="1384.39,-227.97 1387.89,-237.97 1391.39,-227.97 1384.39,-227.97"/>
</g>
<!-- JwtStrategy -->
<g id="node17" class="node">
<title>JwtStrategy</title>
<ellipse fill="#fdb462" stroke="black" cx="835" cy="-180" rx="56.76" ry="18"/>
<text text-anchor="middle" x="835" y="-175.8" font-family="Times,serif" font-size="14.00">JwtStrategy</text>
</g>
<!-- JwtStrategy&#45;&gt;AuthModule -->
<g id="edge17" class="edge">
<title>JwtStrategy&#45;&gt;AuthModule</title>
<path fill="none" stroke="black" d="M835,-198.04C835,-211.29 835,-227 835,-227 835,-227 1366,-227 1366,-227 1366,-227 1366,-228.08 1366,-228.08"/>
<polygon fill="black" stroke="black" points="1362.5,-227.8 1366,-237.8 1369.5,-227.8 1362.5,-227.8"/>
</g>
<!-- LocalStrategy -->
<g id="node18" class="node">
<title>LocalStrategy</title>
<ellipse fill="#fdb462" stroke="black" cx="695" cy="-180" rx="65.41" ry="18"/>
<text text-anchor="middle" x="695" y="-175.8" font-family="Times,serif" font-size="14.00">LocalStrategy</text>
</g>
<!-- LocalStrategy&#45;&gt;AuthModule -->
<g id="edge18" class="edge">
<title>LocalStrategy&#45;&gt;AuthModule</title>
<path fill="none" stroke="black" d="M695,-198.05C695,-212.37 695,-230 695,-230 695,-230 1344.11,-230 1344.11,-230 1344.11,-230 1344.11,-230.79 1344.11,-230.79"/>
<polygon fill="black" stroke="black" points="1340.61,-227.94 1344.11,-237.94 1347.61,-227.94 1340.61,-227.94"/>
</g>
<!-- CatsService -->
<g id="node19" class="node">
<title>CatsService</title>
<ellipse fill="#fdb462" stroke="black" cx="1248" cy="-104" rx="57.32" ry="18"/>
<text text-anchor="middle" x="1248" y="-99.8" font-family="Times,serif" font-size="14.00">CatsService</text>
</g>
<!-- CatsService&#45;&gt;CatsModule -->
<g id="edge20" class="edge">
<title>CatsService&#45;&gt;CatsModule</title>
<path fill="none" stroke="black" d="M1248,-122.01C1248,-122.01 1248,-151.85 1248,-151.85"/>
<polygon fill="black" stroke="black" points="1244.5,-151.85 1248,-161.85 1251.5,-151.85 1244.5,-151.85"/>
</g>
<!-- ContextService -->
<g id="node21" class="node">
<title>ContextService</title>
<ellipse fill="#fdb462" stroke="black" cx="3404" cy="-256" rx="70.64" ry="18"/>
<text text-anchor="middle" x="3404" y="-251.8" font-family="Times,serif" font-size="14.00">ContextService</text>
</g>
<!-- ContextService&#45;&gt;ClsModule -->
<g id="edge22" class="edge">
<title>ContextService&#45;&gt;ClsModule</title>
<path fill="none" stroke="black" d="M3404,-237.75C3404,-223.82 3404,-207 3404,-207 3404,-207 2208,-207 2208,-207 2208,-207 2208,-206.12 2208,-206.12"/>
<polygon fill="black" stroke="black" points="2211.5,-208.16 2208,-198.16 2204.5,-208.16 2211.5,-208.16"/>
</g>
<!-- InvoiceDetailsService -->
<g id="node22" class="node">
<title>InvoiceDetailsService</title>
<ellipse fill="#fdb462" stroke="black" cx="1479" cy="-104" rx="96.1" ry="18"/>
<text text-anchor="middle" x="1479" y="-99.8" font-family="Times,serif" font-size="14.00">InvoiceDetailsService</text>
</g>
<!-- InvoiceDetailsService&#45;&gt;InvoiceDetailsModule -->
<g id="edge23" class="edge">
<title>InvoiceDetailsService&#45;&gt;InvoiceDetailsModule</title>
<path fill="none" stroke="black" d="M1510.35,-121.25C1510.35,-121.25 1510.35,-151.76 1510.35,-151.76"/>
<polygon fill="black" stroke="black" points="1506.85,-151.76 1510.35,-161.76 1513.85,-151.76 1506.85,-151.76"/>
</g>
<!-- InvoiceMasterService -->
<g id="node23" class="node">
<title>InvoiceMasterService</title>
<ellipse fill="#fdb462" stroke="black" cx="1711" cy="-104" rx="95.52" ry="18"/>
<text text-anchor="middle" x="1711" y="-99.8" font-family="Times,serif" font-size="14.00">InvoiceMasterService</text>
</g>
<!-- InvoiceMasterService&#45;&gt;InvoiceMasterModule -->
<g id="edge24" class="edge">
<title>InvoiceMasterService&#45;&gt;InvoiceMasterModule</title>
<path fill="none" stroke="black" d="M1680.22,-121.25C1680.22,-121.25 1680.22,-151.76 1680.22,-151.76"/>
<polygon fill="black" stroke="black" points="1676.72,-151.76 1680.22,-161.76 1683.72,-151.76 1676.72,-151.76"/>
</g>
<!-- OrdersService -->
<g id="node25" class="node">
<title>OrdersService</title>
<ellipse fill="#fdb462" stroke="black" cx="400" cy="-180" rx="66.03" ry="18"/>
<text text-anchor="middle" x="400" y="-175.8" font-family="Times,serif" font-size="14.00">OrdersService</text>
</g>
<!-- OrdersService&#45;&gt;OrdersModule -->
<g id="edge27" class="edge">
<title>OrdersService&#45;&gt;OrdersModule</title>
<path fill="none" stroke="black" d="M400,-198.28C400,-213.95 400,-234 400,-234 400,-234 1239.8,-234 1239.8,-234 1239.8,-234 1239.8,-234.38 1239.8,-234.38"/>
<polygon fill="black" stroke="black" points="1236.3,-227.83 1239.8,-237.83 1243.3,-227.83 1236.3,-227.83"/>
</g>
<!-- TestProvider -->
<g id="node26" class="node">
<title>TestProvider</title>
<ellipse fill="#fdb462" stroke="black" cx="255" cy="-180" rx="60.83" ry="18"/>
<text text-anchor="middle" x="255" y="-175.8" font-family="Times,serif" font-size="14.00">TestProvider</text>
</g>
<!-- TestProvider&#45;&gt;OrdersModule -->
<g id="edge28" class="edge">
<title>TestProvider&#45;&gt;OrdersModule</title>
<path fill="none" stroke="black" d="M255,-198.03C255,-214.4 255,-236 255,-236 255,-236 1222.99,-236 1222.99,-236 1222.99,-236 1222.99,-236.18 1222.99,-236.18"/>
<polygon fill="black" stroke="black" points="1219.49,-227.85 1222.99,-237.85 1226.49,-227.85 1219.49,-227.85"/>
</g>
<!-- ProductsService -->
<g id="node28" class="node">
<title>ProductsService</title>
<ellipse fill="#fdb462" stroke="black" cx="3719" cy="-256" rx="73.57" ry="18"/>
<text text-anchor="middle" x="3719" y="-251.8" font-family="Times,serif" font-size="14.00">ProductsService</text>
</g>
<!-- ProductsService&#45;&gt;ProductsModule -->
<g id="edge30" class="edge">
<title>ProductsService&#45;&gt;ProductsModule</title>
<path fill="none" stroke="black" d="M3719,-237.76C3719,-222.43 3719,-203 3719,-203 3719,-203 2329.85,-203 2329.85,-203 2329.85,-203 2329.85,-202.51 2329.85,-202.51"/>
<polygon fill="black" stroke="black" points="2333.35,-208.12 2329.85,-198.12 2326.35,-208.12 2333.35,-208.12"/>
</g>
<!-- RabbitMQModule -->
<g id="node29" class="node">
<title>RabbitMQModule</title>
<polygon fill="#8dd3c7" stroke="black" points="2809.93,-122 2806.93,-126 2785.93,-126 2782.93,-122 2690.07,-122 2690.07,-86 2809.93,-86 2809.93,-122"/>
<text text-anchor="middle" x="2750" y="-99.8" font-family="Times,serif" font-size="14.00">RabbitMQModule</text>
</g>
<!-- RabbitMQModule&#45;&gt;RabbitMQExampleModule -->
<g id="edge31" class="edge">
<title>RabbitMQModule&#45;&gt;RabbitMQExampleModule</title>
<path fill="none" stroke="black" d="M2690.18,-98C2492.05,-98 1869.68,-98 1869.68,-98 1869.68,-98 1869.68,-151.8 1869.68,-151.8"/>
<polygon fill="black" stroke="black" points="1866.18,-151.8 1869.68,-161.8 1873.18,-151.8 1866.18,-151.8"/>
</g>
<!-- PublisherService  -->
<g id="node30" class="node">
<title>PublisherService </title>
<polygon fill="#fb8072" stroke="black" points="3163.36,-198 3048.64,-198 3048.64,-162 3163.36,-162 3163.36,-198"/>
<text text-anchor="middle" x="3106" y="-175.8" font-family="Times,serif" font-size="14.00">PublisherService </text>
</g>
<!-- RabbitMQModule&#45;&gt;PublisherService  -->
<g id="edge32" class="edge">
<title>RabbitMQModule&#45;&gt;PublisherService </title>
<path fill="none" stroke="black" stroke-dasharray="5,2" d="M2809.99,-98C2911.45,-98 3106,-98 3106,-98 3106,-98 3106,-151.8 3106,-151.8"/>
<polygon fill="black" stroke="black" points="3102.5,-151.8 3106,-161.8 3109.5,-151.8 3102.5,-151.8"/>
</g>
<!-- RabbitMQService  -->
<g id="node31" class="node">
<title>RabbitMQService </title>
<polygon fill="#fb8072" stroke="black" points="3030.86,-198 2909.14,-198 2909.14,-162 3030.86,-162 3030.86,-198"/>
<text text-anchor="middle" x="2970" y="-175.8" font-family="Times,serif" font-size="14.00">RabbitMQService </text>
</g>
<!-- RabbitMQModule&#45;&gt;RabbitMQService  -->
<g id="edge33" class="edge">
<title>RabbitMQModule&#45;&gt;RabbitMQService </title>
<path fill="none" stroke="black" stroke-dasharray="5,2" d="M2809.83,-110C2874.97,-110 2970,-110 2970,-110 2970,-110 2970,-151.97 2970,-151.97"/>
<polygon fill="black" stroke="black" points="2966.5,-151.97 2970,-161.97 2973.5,-151.97 2966.5,-151.97"/>
</g>
<!-- SubscriberService  -->
<g id="node32" class="node">
<title>SubscriberService </title>
<polygon fill="#fb8072" stroke="black" points="2891.85,-198 2770.15,-198 2770.15,-162 2891.85,-162 2891.85,-198"/>
<text text-anchor="middle" x="2831" y="-175.8" font-family="Times,serif" font-size="14.00">SubscriberService </text>
</g>
<!-- RabbitMQModule&#45;&gt;SubscriberService  -->
<g id="edge34" class="edge">
<title>RabbitMQModule&#45;&gt;SubscriberService </title>
<path fill="none" stroke="black" stroke-dasharray="5,2" d="M2790.02,-122.01C2790.02,-122.01 2790.02,-151.85 2790.02,-151.85"/>
<polygon fill="black" stroke="black" points="2786.52,-151.85 2790.02,-161.85 2793.52,-151.85 2786.52,-151.85"/>
</g>
<!-- PublisherService -->
<g id="node33" class="node">
<title>PublisherService</title>
<ellipse fill="#fdb462" stroke="black" cx="2670" cy="-180" rx="76.44" ry="18"/>
<text text-anchor="middle" x="2670" y="-175.8" font-family="Times,serif" font-size="14.00">PublisherService</text>
</g>
<!-- PublisherService&#45;&gt;RabbitMQModule -->
<g id="edge35" class="edge">
<title>PublisherService&#45;&gt;RabbitMQModule</title>
<path fill="none" stroke="black" d="M2718.38,-165.7C2718.38,-165.7 2718.38,-132.27 2718.38,-132.27"/>
<polygon fill="black" stroke="black" points="2721.88,-132.27 2718.38,-122.27 2714.88,-132.27 2721.88,-132.27"/>
</g>
<!-- SubscriberService -->
<g id="node34" class="node">
<title>SubscriberService</title>
<ellipse fill="#fdb462" stroke="black" cx="2494" cy="-180" rx="81.08" ry="18"/>
<text text-anchor="middle" x="2494" y="-175.8" font-family="Times,serif" font-size="14.00">SubscriberService</text>
</g>
<!-- SubscriberService&#45;&gt;RabbitMQModule -->
<g id="edge36" class="edge">
<title>SubscriberService&#45;&gt;RabbitMQModule</title>
<path fill="none" stroke="black" d="M2494,-161.97C2494,-141.23 2494,-110 2494,-110 2494,-110 2679.98,-110 2679.98,-110"/>
<polygon fill="black" stroke="black" points="2679.98,-113.5 2689.98,-110 2679.98,-106.5 2679.98,-113.5"/>
</g>
<!-- RedisPubSubService -->
<g id="node37" class="node">
<title>RedisPubSubService</title>
<ellipse fill="#fdb462" stroke="black" cx="2505" cy="-256" rx="92.07" ry="18"/>
<text text-anchor="middle" x="2505" y="-251.8" font-family="Times,serif" font-size="14.00">RedisPubSubService</text>
</g>
<!-- RedisPubSubService&#45;&gt;RedisModule -->
<g id="edge39" class="edge">
<title>RedisPubSubService&#45;&gt;RedisModule</title>
<path fill="none" stroke="black" d="M2412.74,-256C2273.68,-256 2026.48,-256 2026.48,-256 2026.48,-256 2026.48,-208.01 2026.48,-208.01"/>
<polygon fill="black" stroke="black" points="2029.98,-208.01 2026.48,-198.01 2022.98,-208.01 2029.98,-208.01"/>
</g>
<!-- RedisService -->
<g id="node38" class="node">
<title>RedisService</title>
<ellipse fill="#fdb462" stroke="black" cx="2677" cy="-256" rx="61.97" ry="18"/>
<text text-anchor="middle" x="2677" y="-251.8" font-family="Times,serif" font-size="14.00">RedisService</text>
</g>
<!-- RedisService&#45;&gt;RedisModule -->
<g id="edge40" class="edge">
<title>RedisService&#45;&gt;RedisModule</title>
<path fill="none" stroke="black" d="M2677,-237.68C2677,-229.21 2677,-221 2677,-221 2677,-221 1996,-221 1996,-221 1996,-221 1996,-208.1 1996,-208.1"/>
<polygon fill="black" stroke="black" points="1999.5,-208.1 1996,-198.1 1992.5,-208.1 1999.5,-208.1"/>
</g>
<!-- TasksService  -->
<g id="node39" class="node">
<title>TasksService </title>
<polygon fill="#fb8072" stroke="black" points="4077.13,-274 3982.87,-274 3982.87,-238 4077.13,-238 4077.13,-274"/>
<text text-anchor="middle" x="4030" y="-251.8" font-family="Times,serif" font-size="14.00">TasksService </text>
</g>
<!-- TasksModule -->
<g id="node40" class="node">
<title>TasksModule</title>
<polygon fill="#8dd3c7" stroke="black" points="4076.21,-198 4073.21,-202 4052.21,-202 4049.21,-198 3983.79,-198 3983.79,-162 4076.21,-162 4076.21,-198"/>
<text text-anchor="middle" x="4030" y="-175.8" font-family="Times,serif" font-size="14.00">TasksModule</text>
</g>
<!-- TasksModule&#45;&gt;TasksService  -->
<g id="edge41" class="edge">
<title>TasksModule&#45;&gt;TasksService </title>
<path fill="none" stroke="black" stroke-dasharray="5,2" d="M4030,-198.01C4030,-198.01 4030,-227.85 4030,-227.85"/>
<polygon fill="black" stroke="black" points="4026.5,-227.85 4030,-237.85 4033.5,-227.85 4026.5,-227.85"/>
</g>
<!-- TasksService -->
<g id="node41" class="node">
<title>TasksService</title>
<ellipse fill="#fdb462" stroke="black" cx="4030" cy="-104" rx="62.54" ry="18"/>
<text text-anchor="middle" x="4030" y="-99.8" font-family="Times,serif" font-size="14.00">TasksService</text>
</g>
<!-- TasksService&#45;&gt;TasksModule -->
<g id="edge42" class="edge">
<title>TasksService&#45;&gt;TasksModule</title>
<path fill="none" stroke="black" d="M4030,-122.01C4030,-122.01 4030,-151.85 4030,-151.85"/>
<polygon fill="black" stroke="black" points="4026.5,-151.85 4030,-161.85 4033.5,-151.85 4026.5,-151.85"/>
</g>
<!-- TemplatePlaygroundComponent -->
<g id="node42" class="node">
<title>TemplatePlaygroundComponent</title>
<polygon fill="#ffffb3" stroke="black" points="4918.25,-122 4719.75,-122 4719.75,-86 4918.25,-86 4918.25,-122"/>
<text text-anchor="middle" x="4819" y="-99.8" font-family="Times,serif" font-size="14.00">TemplatePlaygroundComponent</text>
</g>
<!-- TemplatePlaygroundModule -->
<g id="node43" class="node">
<title>TemplatePlaygroundModule</title>
<polygon fill="#8dd3c7" stroke="black" points="4600.47,-198 4597.47,-202 4576.47,-202 4573.47,-198 4423.53,-198 4423.53,-162 4600.47,-162 4600.47,-198"/>
<text text-anchor="middle" x="4512" y="-175.8" font-family="Times,serif" font-size="14.00">TemplatePlaygroundModule</text>
</g>
<!-- TemplatePlaygroundComponent&#45;&gt;TemplatePlaygroundModule -->
<g id="edge43" class="edge">
<title>TemplatePlaygroundComponent&#45;&gt;TemplatePlaygroundModule</title>
<path fill="none" stroke="black" d="M4819,-122.01C4819,-144.49 4819,-180 4819,-180 4819,-180 4610.8,-180 4610.8,-180"/>
<polygon fill="black" stroke="black" points="4610.8,-176.5 4600.8,-180 4610.8,-183.5 4610.8,-176.5"/>
</g>
<!-- TemplatePlaygroundComponent  -->
<g id="node44" class="node">
<title>TemplatePlaygroundComponent </title>
<polygon fill="#80b1d3" stroke="black" points="4613.25,-274 4410.75,-274 4410.75,-238 4613.25,-238 4613.25,-274"/>
<text text-anchor="middle" x="4512" y="-251.8" font-family="Times,serif" font-size="14.00">TemplatePlaygroundComponent </text>
</g>
<!-- TemplatePlaygroundModule&#45;&gt;TemplatePlaygroundComponent  -->
<g id="edge44" class="edge">
<title>TemplatePlaygroundModule&#45;&gt;TemplatePlaygroundComponent </title>
<path fill="none" stroke="black" stroke-dasharray="1,5" d="M4512,-198.01C4512,-198.01 4512,-227.85 4512,-227.85"/>
<polygon fill="black" stroke="black" points="4508.5,-227.85 4512,-237.85 4515.5,-227.85 4508.5,-227.85"/>
</g>
<!-- HbsRenderService -->
<g id="node45" class="node">
<title>HbsRenderService</title>
<ellipse fill="#fdb462" stroke="black" cx="4613" cy="-104" rx="83.37" ry="18"/>
<text text-anchor="middle" x="4613" y="-99.8" font-family="Times,serif" font-size="14.00">HbsRenderService</text>
</g>
<!-- HbsRenderService&#45;&gt;TemplatePlaygroundModule -->
<g id="edge45" class="edge">
<title>HbsRenderService&#45;&gt;TemplatePlaygroundModule</title>
<path fill="none" stroke="black" d="M4565.03,-119.02C4565.03,-119.02 4565.03,-151.8 4565.03,-151.8"/>
<polygon fill="black" stroke="black" points="4561.53,-151.8 4565.03,-161.8 4568.53,-151.8 4561.53,-151.8"/>
</g>
<!-- TemplateEditorService -->
<g id="node46" class="node">
<title>TemplateEditorService</title>
<ellipse fill="#fdb462" stroke="black" cx="4411" cy="-104" rx="100.7" ry="18"/>
<text text-anchor="middle" x="4411" y="-99.8" font-family="Times,serif" font-size="14.00">TemplateEditorService</text>
</g>
<!-- TemplateEditorService&#45;&gt;TemplatePlaygroundModule -->
<g id="edge46" class="edge">
<title>TemplateEditorService&#45;&gt;TemplatePlaygroundModule</title>
<path fill="none" stroke="black" d="M4467.56,-119.02C4467.56,-119.02 4467.56,-151.8 4467.56,-151.8"/>
<polygon fill="black" stroke="black" points="4464.06,-151.8 4467.56,-161.8 4471.06,-151.8 4464.06,-151.8"/>
</g>
<!-- ZipExportService -->
<g id="node47" class="node">
<title>ZipExportService</title>
<ellipse fill="#fdb462" stroke="black" cx="4213" cy="-104" rx="79.87" ry="18"/>
<text text-anchor="middle" x="4213" y="-99.8" font-family="Times,serif" font-size="14.00">ZipExportService</text>
</g>
<!-- ZipExportService&#45;&gt;TemplatePlaygroundModule -->
<g id="edge47" class="edge">
<title>ZipExportService&#45;&gt;TemplatePlaygroundModule</title>
<path fill="none" stroke="black" d="M4213,-122.01C4213,-144.49 4213,-180 4213,-180 4213,-180 4413.5,-180 4413.5,-180"/>
<polygon fill="black" stroke="black" points="4413.5,-183.5 4423.5,-180 4413.5,-176.5 4413.5,-183.5"/>
</g>
<!-- UsersService -->
<g id="node49" class="node">
<title>UsersService</title>
<ellipse fill="#fdb462" stroke="black" cx="3113" cy="-256" rx="61.95" ry="18"/>
<text text-anchor="middle" x="3113" y="-251.8" font-family="Times,serif" font-size="14.00">UsersService</text>
</g>
<!-- UsersService&#45;&gt;UsersModule -->
<g id="edge49" class="edge">
<title>UsersService&#45;&gt;UsersModule</title>
<path fill="none" stroke="black" d="M3107.1,-237.94C3107.1,-226.56 3107.1,-214 3107.1,-214 3107.1,-214 2095.86,-214 2095.86,-214 2095.86,-214 2095.86,-208.19 2095.86,-208.19"/>
<polygon fill="black" stroke="black" points="2099.36,-208.19 2095.86,-198.19 2092.36,-208.19 2099.36,-208.19"/>
</g>
</g>
</svg>
